<svg width="72" height="72" viewBox="0 0 72 72" fill="none" xmlns="http://www.w3.org/2000/svg">
<g clip-path="url(#clip0_4_44)">
<path fill-rule="evenodd" clip-rule="evenodd" d="M35.9217 18.6411C26.377 18.6411 18.6392 26.3789 18.6392 35.9237C18.6392 45.4684 26.377 53.2062 35.9217 53.2062C45.4665 53.2062 53.2043 45.4684 53.2043 35.9237C53.2043 26.3789 45.4665 18.6411 35.9217 18.6411ZM35.9217 51.2859C27.437 51.2859 20.5595 44.4075 20.5595 35.9237C20.5595 27.4398 27.437 20.5614 35.9217 20.5614C44.4065 20.5614 51.284 27.4398 51.284 35.9237C51.284 44.4075 44.4065 51.2859 35.9217 51.2859Z" fill="#394240"/>
<path fill-rule="evenodd" clip-rule="evenodd" d="M65.6862 34.9616H56.0847C55.5538 34.9616 55.1246 35.3908 55.1246 35.9217C55.1246 36.4527 55.5538 36.8819 56.0847 36.8819H65.6862C66.2171 36.8819 66.6463 36.4527 66.6463 35.9217C66.6463 35.3908 66.2171 34.9616 65.6862 34.9616Z" fill="#43756A"/>
<path fill-rule="evenodd" clip-rule="evenodd" d="M16.1975 40.2126L12.4885 41.2064C11.9758 41.3456 11.6714 41.8717 11.8097 42.3844C11.947 42.8962 12.4722 43.2006 12.9859 43.0613L16.6949 42.0676C17.2066 41.9303 17.511 41.4061 17.3737 40.8914C17.2364 40.3797 16.7093 40.0753 16.1975 40.2126Z" fill="#43756A"/>
<path fill-rule="evenodd" clip-rule="evenodd" d="M52.5514 26.3203C52.8173 26.7802 53.404 26.9377 53.8639 26.6708L62.1787 21.8701C62.6386 21.606 62.7961 21.0184 62.5292 20.5595C62.2652 20.0996 61.6775 19.9421 61.2186 20.209L52.9038 25.0097C52.4439 25.2757 52.2874 25.8604 52.5514 26.3203Z" fill="#43756A"/>
<path fill-rule="evenodd" clip-rule="evenodd" d="M22.3434 49.501C21.9689 49.1256 21.3612 49.1275 20.9858 49.501L18.2705 52.2163C17.8951 52.5917 17.896 53.2005 18.2714 53.5739C18.6459 53.9494 19.2527 53.9494 19.6281 53.5739L22.3434 50.8587C22.7188 50.4852 22.7188 49.8755 22.3434 49.501Z" fill="#43756A"/>
<path fill-rule="evenodd" clip-rule="evenodd" d="M45.5232 19.2921C45.9831 19.5561 46.5697 19.4006 46.8357 18.9397L51.6364 10.6249C51.9023 10.165 51.7449 9.57736 51.284 9.31333C50.8251 9.04737 50.2394 9.20483 49.9734 9.66378L45.1737 17.9805C44.9067 18.4404 45.0642 19.0252 45.5232 19.2921Z" fill="#43756A"/>
<path fill-rule="evenodd" clip-rule="evenodd" d="M30.952 54.4698C30.4412 54.3325 29.9151 54.6387 29.7759 55.1486L28.7821 58.8576C28.6448 59.3713 28.9511 59.8965 29.4629 60.0338C29.9746 60.173 30.4998 59.8686 30.6371 59.355L31.6309 55.6459C31.7701 55.1361 31.4657 54.609 30.952 54.4698Z" fill="#43756A"/>
<path fill-rule="evenodd" clip-rule="evenodd" d="M35.9217 16.7189C36.4537 16.7189 36.8828 16.2897 36.8838 15.7588V6.15733C36.8838 5.62637 36.4546 5.19719 35.9217 5.19719C35.3927 5.19719 34.9635 5.62637 34.9626 6.15733L34.9635 15.7588C34.9635 16.2897 35.3927 16.7189 35.9217 16.7189Z" fill="#43756A"/>
<path fill-rule="evenodd" clip-rule="evenodd" d="M42.0686 55.1486C41.9332 54.6368 41.407 54.3325 40.8924 54.4698C40.3806 54.6071 40.0782 55.1332 40.2136 55.6459L41.2073 59.355C41.3456 59.8686 41.8727 60.1711 42.3854 60.0338C42.8981 59.8965 43.2006 59.3722 43.0623 58.8576L42.0686 55.1486Z" fill="#43756A"/>
<path fill-rule="evenodd" clip-rule="evenodd" d="M25.0116 18.9388C25.2757 19.3987 25.8633 19.5561 26.3203 19.2911C26.7812 19.0252 26.9396 18.4395 26.6736 17.9786L21.8729 9.66378C21.6079 9.20483 21.0203 9.04737 20.5595 9.31333C20.1015 9.57736 19.944 10.165 20.209 10.6239L25.0116 18.9388Z" fill="#43756A"/>
<path fill-rule="evenodd" clip-rule="evenodd" d="M50.8596 49.4991C50.4871 49.1256 49.8784 49.1256 49.502 49.4991C49.1266 49.8745 49.1294 50.4833 49.502 50.8568L52.2173 53.572C52.5936 53.9494 53.2014 53.9455 53.5759 53.572C53.9513 53.1966 53.9513 52.5917 53.5749 52.2144L50.8596 49.4991Z" fill="#43756A"/>
<path fill-rule="evenodd" clip-rule="evenodd" d="M9.66568 21.8701L17.9824 26.6688C18.4404 26.9348 19.0271 26.7773 19.2911 26.3203C19.5571 25.8594 19.4015 25.2738 18.9416 25.0078L10.6258 20.2071C10.1669 19.9402 9.57927 20.0986 9.31331 20.5595C9.05023 21.0174 9.20674 21.6041 9.66568 21.8701Z" fill="#43756A"/>
<path fill-rule="evenodd" clip-rule="evenodd" d="M55.1505 42.0667L58.8595 43.0604C59.3732 43.1996 59.8984 42.8914 60.0357 42.3797C60.174 41.8679 59.8706 41.3427 59.3569 41.2054L55.6479 40.2117C55.138 40.0724 54.6099 40.3768 54.4717 40.8905C54.3334 41.4032 54.6407 41.9284 55.1505 42.0667Z" fill="#43756A"/>
<path fill-rule="evenodd" clip-rule="evenodd" d="M16.7189 35.9217C16.7199 35.3889 16.2916 34.9616 15.7607 34.9597L6.15733 34.9616C5.62733 34.9616 5.19719 35.3889 5.19719 35.9217C5.19815 36.4508 5.62733 36.8819 6.15829 36.8819L15.7607 36.88C16.2897 36.88 16.7199 36.4508 16.7189 35.9217Z" fill="#43756A"/>
<path fill-rule="evenodd" clip-rule="evenodd" d="M55.6478 31.6289L59.3569 30.6352C59.8706 30.4979 60.173 29.9698 60.0347 29.4571C59.8984 28.9473 59.3742 28.6429 58.8595 28.7802L55.1505 29.7739C54.6387 29.9093 54.3344 30.4374 54.4717 30.9501C54.6071 31.4619 55.1361 31.7643 55.6478 31.6289Z" fill="#43756A"/>
<path d="M35.9217 51.284C44.4061 51.284 51.284 44.4061 51.284 35.9217C51.284 27.4374 44.4061 20.5595 35.9217 20.5595C27.4374 20.5595 20.5595 27.4374 20.5595 35.9217C20.5595 44.4061 27.4374 51.284 35.9217 51.284Z" fill="#F9EBB2"/>
<path fill-rule="evenodd" clip-rule="evenodd" d="M19.2921 45.5232C19.028 45.0623 18.4414 44.9039 17.9815 45.1689L9.6657 49.9715C9.20675 50.2375 9.04737 50.8231 9.31333 51.284C9.57929 51.742 10.1669 51.8995 10.6258 51.6345L18.9407 46.8318C19.3987 46.5678 19.558 45.9831 19.2921 45.5232Z" fill="#43756A"/>
<path fill-rule="evenodd" clip-rule="evenodd" d="M49.502 22.3405C49.8755 22.7179 50.4833 22.714 50.8596 22.3405L53.5749 19.6252C53.9513 19.2498 53.9494 18.643 53.573 18.2676C53.2005 17.8922 52.5927 17.8922 52.2173 18.2676L49.502 20.9829C49.1256 21.3564 49.1275 21.9661 49.502 22.3405Z" fill="#43756A"/>
<path fill-rule="evenodd" clip-rule="evenodd" d="M26.3203 52.5514C25.8604 52.2854 25.2757 52.4429 25.0097 52.8999L20.209 61.2186C19.945 61.6766 20.0986 62.2632 20.5595 62.5292C21.0194 62.7913 21.606 62.6339 21.872 62.1768L26.6708 53.8601C26.9358 53.403 26.7812 52.8164 26.3203 52.5514Z" fill="#43756A"/>
<path fill-rule="evenodd" clip-rule="evenodd" d="M40.8934 17.3718C41.4032 17.511 41.9284 17.2028 42.0695 16.693L43.0633 12.9839C43.2006 12.4703 42.8943 11.9432 42.3825 11.8078C41.8727 11.6685 41.3456 11.9729 41.2083 12.4866L40.2145 16.1956C40.0734 16.7055 40.3816 17.2326 40.8934 17.3718Z" fill="#43756A"/>
<path fill-rule="evenodd" clip-rule="evenodd" d="M35.9217 55.1246C35.3908 55.1227 34.9635 55.5518 34.9616 56.0828L34.9635 65.6881C34.9635 66.2152 35.3889 66.6463 35.9217 66.6463C36.4527 66.6463 36.8819 66.2152 36.8828 65.6861L36.88 56.0828C36.88 55.5538 36.4546 55.1246 35.9217 55.1246Z" fill="#43756A"/>
<path fill-rule="evenodd" clip-rule="evenodd" d="M29.7768 16.693C29.9103 17.2047 30.4403 17.5091 30.953 17.3718C31.4638 17.2364 31.7653 16.7083 31.6318 16.1956L30.6381 12.4866C30.4989 11.9729 29.9727 11.6685 29.46 11.8078C28.9501 11.9451 28.6439 12.4693 28.7831 12.9839L29.7768 16.693Z" fill="#43756A"/>
<path fill-rule="evenodd" clip-rule="evenodd" d="M46.8318 52.9028C46.5678 52.4448 45.984 52.2854 45.5232 52.5514C45.0633 52.8154 44.9077 53.4011 45.1708 53.862L49.9753 62.1768C50.2394 62.6367 50.8231 62.7961 51.284 62.5292C51.7439 62.2632 51.9004 61.6756 51.6364 61.2167L46.8318 52.9028Z" fill="#43756A"/>
<path fill-rule="evenodd" clip-rule="evenodd" d="M20.9848 22.3405C21.3564 22.7198 21.967 22.7159 22.3424 22.3405C22.7179 21.969 22.714 21.3612 22.3424 20.9829L19.6272 18.2676C19.2498 17.8922 18.643 17.8941 18.2686 18.2695C17.8941 18.643 17.8922 19.2498 18.2695 19.6252L20.9848 22.3405Z" fill="#43756A"/>
<path fill-rule="evenodd" clip-rule="evenodd" d="M62.1797 49.9715L53.862 45.1727C53.4031 44.9087 52.8183 45.0623 52.5533 45.5251C52.2864 45.9831 52.4458 46.5678 52.9028 46.8338L61.2215 51.6345C61.6795 51.8985 62.2642 51.7449 62.5302 51.284C62.7942 50.8231 62.6367 50.2375 62.1797 49.9715Z" fill="#43756A"/>
<path fill-rule="evenodd" clip-rule="evenodd" d="M16.6939 29.7749L12.9839 28.7802C12.4693 28.6429 11.9441 28.9492 11.8078 29.4609C11.6695 29.9708 11.9719 30.4979 12.4866 30.6371L16.1956 31.6289C16.7054 31.7691 17.2335 31.4619 17.3718 30.9501C17.511 30.4422 17.2038 29.917 16.6939 29.7749Z" fill="#43756A"/>
<path fill-rule="evenodd" clip-rule="evenodd" d="M33.3336 23.7647C32.8206 23.9019 32.5168 24.4273 32.654 24.9403C32.7911 25.4532 33.3166 25.757 33.8295 25.6198C38.9515 24.2504 44.2154 27.2926 45.5851 32.4155C45.7223 32.9284 46.2477 33.2322 46.7607 33.0951C47.2736 32.9579 47.5774 32.4324 47.4403 31.9195C45.7968 25.7725 39.4805 22.1212 33.3336 23.7647Z" fill="#394240"/>
</g>
<path d="M45.1025 37.8858L42.0625 36.4762C42.0048 36.4519 41.9384 36.4459 41.8791 36.468L40.7215 36.8707L39.1924 32.9279C39.1619 32.8514 39.0968 32.7956 39.0162 32.7778L27.7604 30.2706C27.6567 30.2511 27.551 30.2937 27.4961 30.3851C27.4422 30.4758 27.4521 30.5914 27.5217 30.6716L29.8684 33.3849L26.8733 33.0063C26.7734 32.9932 26.672 33.0455 26.6247 33.1374C26.5775 33.2281 26.5924 33.3401 26.6619 33.4166L35.7508 43.3019C35.7993 43.353 35.8659 43.3809 35.9323 43.3809C35.9864 43.3809 36.0403 43.3637 36.0858 43.3275L41.5246 38.9773L45.044 38.3506C45.1504 38.3312 45.2313 38.2462 45.2446 38.1395C45.2568 38.0334 45.199 37.9318 45.1025 37.8858ZM30.5135 33.3817L28.3769 30.9129L38.7807 33.2294L40.2563 37.0322L39.3143 37.3584L37.8476 34.5003C37.8108 34.4292 37.7409 34.3795 37.6594 34.3695L30.5435 33.4701C30.5335 33.441 30.5359 33.4072 30.5135 33.3817ZM41.3739 38.5061C41.3346 38.5135 41.2962 38.5306 41.2641 38.5559L39.0641 40.3153L38.4816 39.738C38.3867 39.6416 38.2302 39.6425 38.1335 39.7394C38.0383 39.8345 38.0395 39.99 38.1354 40.0859L38.6774 40.623L35.9549 42.8019L33.1593 39.7599L37.6035 38.7787C37.6939 38.758 37.765 38.6895 37.7889 38.6004C37.8117 38.5099 37.7828 38.4157 37.713 38.3545L36.6591 37.4291C36.5569 37.3381 36.4021 37.3479 36.3114 37.451C36.2218 37.5532 36.2324 37.7074 36.3345 37.7985L37.0237 38.4042L32.7743 39.3438L30.81 37.207L35.2679 36.6644C35.3598 36.6529 35.4376 36.5914 35.4691 36.5048C35.5011 36.4164 35.4805 36.3202 35.4176 36.2531L34.4579 35.2312C34.3646 35.1316 34.2099 35.1279 34.1109 35.2194C34.0122 35.3107 34.0072 35.4674 34.0992 35.5663L34.7277 36.2349L30.4013 36.7622L27.4746 33.579L37.467 34.8427L38.9731 37.7742C39.0277 37.8833 39.1578 37.937 39.2712 37.8932L41.9443 36.9656L44.1865 38.0042L41.3739 38.5061Z" fill="black" stroke="black" stroke-width="0.3"/>
<g clip-path="url(#clip1_4_44)">
<path fill-rule="evenodd" clip-rule="evenodd" d="M28.8303 42.7291H24.4933C24.3791 42.7291 24.2868 42.8307 24.2868 42.9563C24.2868 43.0819 24.3791 43.1835 24.4933 43.1835H28.5893C29.1787 43.1835 29.6564 43.5903 29.6564 44.0921C29.6564 44.594 29.3034 45.0008 28.4172 45.0008V45.4552H28.8303C29.5145 45.4552 30.0694 44.8448 30.0694 44.0921C30.0694 43.3395 29.5145 42.7291 28.8303 42.7291ZM27.1785 43.6378H27.1781H25.5259C25.4117 43.6378 25.3194 43.7396 25.3194 43.865C25.3194 43.9906 25.4117 44.0921 25.5259 44.0921H27.1781C27.4061 44.0921 27.5911 44.2957 27.5911 44.5465C27.5911 44.7973 27.4061 45.0008 27.1781 45.0008V45.4552C27.6343 45.4552 28.0042 45.0483 28.0042 44.5465C28.0042 44.0449 27.6345 43.6383 27.1785 43.6378ZM26.1455 41.3661H28.6238C28.738 41.3661 28.8303 41.2645 28.8303 41.1389C28.8303 41.0135 28.738 40.9117 28.6238 40.9117H26.1455C26.0313 40.9117 25.939 41.0135 25.939 41.1389C25.939 41.2645 26.0313 41.3661 26.1455 41.3661ZM25.1129 42.2748H28.8303C29.5145 42.2748 30.0694 41.6643 30.0694 40.9117C30.0694 40.1591 29.5145 39.5487 28.8303 39.5487V40.003C29.4131 40.1237 29.6564 40.4099 29.6564 40.9117C29.6564 41.4136 29.1787 41.8204 28.5893 41.8204H25.1129C24.9987 41.8204 24.9064 41.9222 24.9064 42.0476C24.9064 42.1732 24.9987 42.2748 25.1129 42.2748Z" fill="black"/>
</g>
<defs>
<clipPath id="clip0_4_44">
<rect width="61.4491" height="61.4491" fill="white" transform="translate(5.19719 5.19719)"/>
</clipPath>
<clipPath id="clip1_4_44">
<rect width="5.78258" height="6.36083" fill="white" transform="translate(24.2868 39.3215)"/>
</clipPath>
</defs>
</svg>
