<svg width="126" height="109" viewBox="0 0 126 109" fill="none" xmlns="http://www.w3.org/2000/svg">
<path d="M12.1489 49.4761C12.1489 49.4025 12.1489 49.3288 12.112 46.4561C12.075 43.5835 12.0011 37.914 12 34.8092C11.9988 31.3356 12.1489 30.2208 12.2597 29.1788C12.2941 28.8556 12.5922 29.0204 12.8541 29.2803C14.0242 30.4413 14.4594 32.0637 15.243 33.6658C16.0853 35.3877 17.07 37.1955 17.9655 39.2772C19.3887 42.5854 20.0566 43.965 20.4686 45.6395C20.8514 47.1956 21.4 48.356 21.7381 49.6568C21.7761 50.2882 21.85 50.8126 21.9619 51C22 50.9665 22 50.672 22 50.3686" stroke="#0C6968" stroke-width="2" stroke-linecap="round"/>
<path d="M13 42C13.1509 42.22 13.6057 42.5533 14.4789 42.9967C14.9749 43.22 15.5783 43.44 16.6811 43.6083C17.784 43.7767 19.368 43.8867 21 44" stroke="#0C6968" stroke-width="2" stroke-linecap="round"/>
<path d="M26 32C26 32.1534 26 32.8459 26.761 36.8429C27.4096 40.2501 29.0439 46.3614 29.7518 49.3685C30.4597 52.3755 30.3075 52.0688 30.153 51.6423C29.4976 49.8334 29.0761 48.4296 29.1499 46.2615C29.1692 45.6946 29.6065 45.2552 30.0677 44.9415C31.0342 44.2841 32.0693 44.3164 32.8348 44.5465C36.0722 45.5193 38.2123 50.4188 38.9121 52.1745C39.0172 52.438 39.0655 52.6776 38.8384 52.8345C37.2254 53.147 36.1508 52.9937 35.3449 52.5696C34.9955 52.2988 34.7672 51.9154 34.532 50.8232" stroke="#0C6968" stroke-width="2" stroke-linecap="round"/>
<path d="M42.1489 43.3577C41.6762 43.9874 41.042 45.8953 41.0004 49.1089C40.9916 49.7957 41.118 50.0307 41.276 50.2704C42.1532 51.6015 45.3839 50.832 46.9338 50.1583C48.6323 49.4199 48.8755 46.792 48.9978 44.4774C49.0192 44.0742 48.8803 43.8395 48.6831 43.6392C48.2455 43.1944 47.6143 43.0405 47.0228 43C46.1963 43.1956 45.3982 43.5151 44.7664 43.911C44.4481 44.1495 44.1346 44.4643 43.8115 45.0272" stroke="#0C6968" stroke-width="2" stroke-linecap="round"/>
<path d="M52 44C52 44.6909 52.1505 46.235 52.3786 47.8185C52.5505 49.0117 53.4414 49.7173 54.0857 49.9491C55.486 50.453 59.1933 47.116 62.0294 44.2376C62.3046 43.9583 62.4137 44.2272 62.4901 44.5367C63.0204 46.388 63.7821 48.1709 64.1607 48.5569C64.3888 48.7134 64.6898 48.7899 65 48.8687" stroke="#0C6968" stroke-width="2" stroke-linecap="round"/>
<path d="M67 35C67.0786 35.5354 68.8092 39.3523 71.9455 44.3277C74.0501 47.6665 76.2815 49.2292 75.9709 49.46C75.4246 49.5385 74.0891 49.5385 73.2833 49.6146C72.4775 49.6908 72.2418 49.8431 71.761 50" stroke="#0C6968" stroke-width="2" stroke-linecap="round"/>
<path d="M82 48.4797C82.3786 47.9569 82.6842 45.7008 83.251 41.2564C83.3991 40.0951 83.893 39.2198 84.2374 39.0195C84.8608 38.657 86.1714 43.3904 87.6539 48.8576C88.1829 50.8085 88.1579 51.1137 88.3084 50.9689C89.7475 47.2215 91.5744 41.3243 92.6349 41.0471C93.2439 41.8154 93.9965 44.4291 95 47.5745" stroke="#0C6968" stroke-width="2" stroke-linecap="round"/>
<path d="M96 47C96.0733 46.4782 96.5156 45.2815 97.9567 43.2966C98.6394 42.3561 99.7711 40.9382 100.551 39.3255C100.774 38.8639 100.231 38.9746 99.8578 39.1624C97.9036 40.1455 96.3733 42.7938 96.0744 44.1828C95.9877 44.5861 96.1467 45.1151 96.3678 45.5312C96.5889 45.9473 96.9556 46.2442 97.4744 46.3972C99.7 46.4017 101.251 45.5065 102.583 44.4583C103.109 44.004 103.329 43.7071 104 42.9513" stroke="#0C6968" stroke-width="2" stroke-linecap="round"/>
<path d="M108 32V44" stroke="#0C6968" stroke-width="2" stroke-linecap="round"/>
<path d="M107.139 46.5094C107.058 47.3371 106.896 48.7909 107.096 49.7268C107.172 50.0824 107.697 50.045 108.184 49.8735C108.671 49.7019 109.232 49.3587 109.561 49.079C110.057 48.6571 110.053 47.6262 109.933 46.448C109.888 46.0141 109.572 45.9561 109.368 46.0237C109.164 46.0913 109.004 46.2972 108.801 46.4719C108.598 46.6466 108.358 46.7839 108.11 46.9253" stroke="#0C6968" stroke-width="2" stroke-linecap="round"/>
<path d="M57 55C57.175 55 57.7026 56.8975 58.4529 62.3268C58.9391 65.845 58.9407 70.9673 58.9871 73.745C59.0335 76.5227 58.946 76.8146 58.8572 77.111C58.7684 77.4073 58.6809 77.6992 58.5908 78" stroke="#0C6968" stroke-width="2" stroke-linecap="round"/>
<path d="M50 67C50.3022 67.7708 50.8355 69.0927 52.1255 73.0376C53.1057 76.0353 54.473 81.1445 55.5901 84.4203C56.7072 87.696 57.4627 89.0062 58.0407 89.6427C58.6187 90.2792 58.9964 90.2021 60.3619 88.274C61.7273 86.346 64.0692 82.5693 65.691 79.7759C67.3129 76.9825 68.1439 75.2868 69 73.5397" stroke="#0C6968" stroke-width="2" stroke-linecap="round"/>
<path d="M13.4465 10.9968C12.6139 11.2215 10.7841 12.1271 7.55097 15.7846C4.53641 19.1949 3.39148 23.9156 2.65954 25.9708C2.10064 27.5401 2.00994 29.0723 1.63025 31.6404C1.38471 33.3011 1.32375 34.819 1.1339 37.2725C0.692275 42.9798 1.47471 44.2017 1.59022 45.8676C1.69576 47.3897 1.93218 49.0451 2.12317 50.4818C2.46325 53.0401 3.2268 55.3911 3.60992 56.9526C4.0221 58.6325 4.37046 60.3162 4.82906 62.1694C5.56178 65.1302 6.65777 67.6562 7.23074 68.6798C8.00297 70.0594 8.56539 71.9686 9.0606 73.1431C9.46318 74.098 10.0887 75.1461 10.6995 76.1697C11.3259 77.2196 11.8408 78.3236 12.4149 79.3472C13.3148 80.9516 14.5856 82.4861 15.3118 83.5835C16.4684 85.3312 18.625 87.4793 19.6566 88.3883C21.0492 89.6154 24.1008 92.1593 25.9845 93.4201C26.979 94.0858 28.003 94.5924 29.1856 95.2733C31.1382 96.3976 33.1037 97.6155 35.0537 98.7141C36.6291 99.6016 39.4282 100.866 42.285 102.265C43.7889 103.001 44.8537 103.142 48.0319 104.044C50.6628 104.791 55.4371 105.845 58.6039 106.499C63.1776 107.443 65.8901 107.457 68.0219 107.494C69.5538 107.521 70.7758 107.684 72.3701 107.759C74.7274 107.869 78.2325 108.138 83.0576 107.913C85.7756 107.786 89.0149 107.239 91.253 106.858C93.4912 106.476 94.6234 106.177 96.6785 105.498C101.701 103.84 105.465 102.241 106.986 101.41C108.448 100.612 110.266 99.6718 112.244 97.9378C116.4 94.293 116.906 90.8974 117.897 88.6652C118.798 86.635 119.422 84.4698 120.185 82.2716C120.926 80.1358 121.33 78.1102 122.128 75.9189C122.752 74.2067 123.235 71.4624 123.654 68.5902C123.9 66.8996 124.153 65.777 124.304 63.6707C124.585 59.7511 125.068 56.1741 124.992 53.8352C124.911 51.3377 124.459 49.4355 124.155 47.9285C123.349 43.9355 122.934 42.0206 121.989 39.3163C121.215 37.1012 119.459 33.3165 118 30.4874C115.582 25.8005 113.787 23.8611 113.027 23.0327C110.915 20.7288 109.37 19.3264 106.791 17.3302C105.093 16.016 102.4 14.3604 98.8881 12.6117C95.3759 10.8629 91.0735 9.14023 88.5929 8.21535C85.6225 7.10784 83.9073 6.76391 81.5502 6.08415C79.0878 5.37402 77.3427 5.17289 73.7516 4.49653C70.5516 3.89383 64.4994 3.0712 61.1245 2.60819C57.2304 2.07396 54.3369 1.84559 50.2254 1.39166C47.3354 1.07258 45.6268 1.16242 42.7505 1.04894C40.4041 0.956366 36.2511 1.01036 33.7728 1.08526C29.3651 1.21846 27.8612 1.84105 26.7175 1.99311C24.5029 2.28758 21.3835 3.4298 19.7046 3.92118C17.9135 4.44541 15.8162 5.62228 13.1515 8.14953C11.9508 9.28825 11.3147 10.3114 10.7418 11.2204C10.3221 12.1294 9.71363 13.0349 9.14065 13.9439C9.02514 14.172 8.94966 14.3967 8.87189 14.6282" stroke="#0C6968" stroke-width="2" stroke-linecap="round"/>
</svg>
