<svg width="1924" height="905" viewBox="0 0 1924 905" fill="none" xmlns="http://www.w3.org/2000/svg">
<path d="M24.5677 85.8614C24.5677 63.5769 25.7795 20.1798 28.5244 17.2234C33.8327 11.5058 42.8914 10.1118 63.9599 9.80111C68.6235 9.73232 70.4319 10.6801 88.0303 10.9819C105.629 11.2838 138.953 11.2838 157.331 10.9908C175.71 10.6978 178.134 10.1118 201.8 9.80999C225.467 9.50812 270.303 9.50812 294.612 9.80111C328.721 10.2122 343.377 12.4557 381.833 13.3524C391.777 13.5843 400.882 14.8351 414.321 15.4211C425.475 15.9074 453.961 18.3864 490.976 18.0934C513.574 17.9146 526.981 15.4388 538.006 14.5421C546.101 13.8837 553.309 11.8875 560.663 10.9908C568.115 10.082 577.765 8.33619 589.718 7.43948C594.977 7.04494 599.229 5.95681 602.891 5.66383C606.653 5.36299 635.692 4.18115 686.091 5.64607C727.633 6.85352 749.159 13.0594 761.929 14.5244C771.718 15.6473 788.028 18.9191 837.05 20.4284C886.072 21.9377 967.262 21.9377 1010 21.6447C1052.73 21.3518 1054.55 20.7658 1067.3 20.4639C1103.67 19.6029 1134.69 18.9901 1146.3 17.2145C1159.71 15.1638 1180.5 14.8351 1196.52 13.3613C1220.97 11.1121 1239.36 7.73247 1257.37 4.78488C1286.7 -0.0144772 1296.9 7.12874 1307.3 10.6801C1314.92 13.2789 1325.03 13.0594 1333.63 14.5332C1341.52 15.8849 1355 16.6108 1373.93 18.0845C1427.11 22.2226 1434.61 14.2669 1444.09 10.1118C1455.58 5.07939 1471.29 7.73247 1488.43 6.25867C1493.33 5.83716 1498.79 5.95681 1500.69 5.95681C1500.78 5.95681 1497.09 7.71471 1495.54 10.9642C1493.94 14.3534 1522.55 14.8351 1556.81 14.5421C1569.26 14.4356 1571.68 13.6632 1587.78 13.3613C1633.55 12.5027 1667.78 11.8875 1675.41 10.1118C1690.66 6.56301 1723.86 7.73247 1748.25 5.96569C1760.32 5.09146 1771.19 3.00922 1780.7 2.11251C1807.11 -0.377827 1844.04 1.80177 1852.91 3.87929C1867.53 7.30522 1875.26 7.12874 1882 13.0328C1889.05 19.1954 1885.68 32.5561 1886.61 49.9842C1886.92 55.7 1888.14 62.7246 1888.45 71.594C1888.63 77.0163 1889.98 102.783 1889.68 140.649C1889.48 165.756 1886.93 179.936 1885.7 195.295C1884.54 209.798 1881.42 221.344 1880.5 234.084C1879.86 242.793 1877.75 250.962 1876.82 262.495C1875.38 280.48 1876.5 308.955 1878.65 316.963C1879.2 318.995 1878.96 321.384 1880.48 322.592C1884.12 325.491 1889.96 323.213 1893.93 323.497C1896.25 323.664 1898.5 326.711 1899.75 329.091C1903.99 337.183 1902.83 356.791 1901.01 370.233C1899.8 379.072 1897.32 388.256 1895.8 396.868C1894.29 405.384 1892.44 414.891 1891.51 434.405C1890.81 449.308 1888.77 458.714 1887.84 477.909C1887.28 489.585 1885.1 498.95 1884.17 510.199C1883.28 520.948 1881.42 527.964 1880.5 543.919C1879.23 565.748 1880.18 598.991 1882.63 607.869C1885.2 617.191 1885.68 625.626 1886.61 640.106C1887.32 651.149 1889.36 664.086 1889.68 724.858C1889.78 743.481 1886.93 751.697 1886.01 760.282C1883.82 780.531 1885.68 813.845 1886.61 831.566C1887.27 844.103 1887.54 852.927 1885.71 855.884C1881.78 862.251 1870.44 861.823 1862.47 863.59C1855.08 865.227 1847.79 866.547 1828.32 868.624C1788.54 872.868 1759.64 868.34 1749.01 867.452C1705.95 863.856 1696.02 868.926 1685.61 870.4C1672.84 872.207 1659.34 872.477 1645.53 875.425C1632.6 878.185 1616.52 877.804 1585.72 879.278C1565.41 880.25 1527.22 879.58 1506.04 879.873C1481.81 880.208 1455.68 881.356 1419.89 881.063C1398.53 880.888 1383.9 878.408 1368.3 877.511C1359.27 876.992 1350.85 874.857 1325.5 873.96C1319.61 873.752 1316.59 873.081 1282 872.779C1247.42 872.477 1181.38 872.477 1145.84 872.184C1107.27 871.866 1090.22 870.702 1065.47 870.116C1032.49 869.335 1014.83 866.564 985.099 865.677C958.405 864.879 908.105 865.375 880.684 865.082C853.262 864.789 850.233 864.203 827.769 863.901C805.305 863.599 763.499 863.599 740.447 863.892C699.708 864.41 670.302 866.547 653.474 867.443C636 868.374 615.22 870.098 596.869 870.995C580.286 871.805 557.128 874.821 535.059 876.322C522.711 877.161 511.778 878.976 493.133 879.873C483.485 880.337 476.269 882.528 415.579 882.838C395.426 882.941 384.467 880.184 372.542 879.287C362.35 878.52 351.419 876.632 344.065 875.736C334.84 874.611 323.878 873.081 301.286 872.184C288.909 871.693 277.977 869.53 268.494 867.159C255.052 863.799 241.257 864.203 201.901 863.306C191.646 863.072 163.152 861.823 121.85 861.53C105.365 861.413 86.5523 860.048 59.939 860.634C48.3327 860.889 39.9354 863.599 29.5342 862.72C16.1571 861.59 23.356 831.673 22.4288 790.664C21.9906 771.284 19.6839 753.544 19.3626 722.852C19.2366 710.819 22.1074 703.825 23.0346 696.714C24.0657 688.806 27.6156 679.57 27.9369 621.746C28.05 601.387 25.192 587.236 24.2648 569.204C23.6956 558.136 20.3081 546.396 18.7567 537.207C17.0156 526.894 16.0118 513.83 15.6905 477.243C15.5692 463.429 18.4354 452.89 20.5835 440.753C23.9498 421.734 22.7317 413.221 24.2556 405.213C25.9817 396.143 27.6156 387.759 29.7637 378.88C32.0074 369.607 31.9119 356.436 33.4358 342.213C36.0266 318.032 30.7001 309.63 29.47 302.225C27.8554 292.507 23.356 283.598 19.6839 274.116C16.4289 265.711 16.0118 258.136 14.7817 250.731C13.0771 240.471 8.66767 229.157 4.99559 219.071C1.91333 210.605 1.32352 201.918 1.00222 155.591C0.883248 138.438 5.58313 130.288 7.73129 123.177C9.83708 116.206 12.9273 108.98 15.3784 101.869C18.4354 94.7574 22.1074 87.6725 24.2556 79.9751C24.5677 77.6046 24.5677 74.6747 24.5677 71.6561" stroke="#1F2F28" stroke-width="2" stroke-linecap="round"/>
<path d="M55.63 107.02C55.63 84.7358 56.8349 41.3388 59.5641 38.3823C64.8422 32.6647 73.8491 31.2708 94.7974 30.96C99.4344 30.8913 101.232 31.839 118.73 32.1409C136.228 32.4427 169.362 32.4427 187.636 32.1497C205.91 31.8567 208.32 31.2708 231.851 30.9689C255.383 30.6671 299.963 30.6671 324.133 30.96C358.047 31.3711 372.62 33.6146 410.856 34.5114C420.744 34.7432 429.797 35.994 443.16 36.58C454.25 37.0663 482.574 39.5453 519.377 39.2524C541.846 39.0735 555.176 36.5978 566.138 35.701C574.187 35.0427 581.355 33.0464 588.666 32.1497C596.076 31.2409 605.671 29.4951 617.555 28.5984C622.784 28.2039 627.012 27.1157 630.654 26.8228C634.393 26.5219 663.267 25.3401 713.379 26.805C754.683 28.0125 776.087 34.2184 788.784 35.6833C798.516 36.8062 814.734 40.078 863.476 41.5873C912.219 43.0967 992.945 43.0967 1035.43 42.8037C1077.92 42.5107 1079.73 41.9247 1092.41 41.6229C1128.57 40.7618 1159.42 40.1491 1170.96 38.3734C1184.3 36.3227 1204.97 35.994 1220.89 34.5202C1245.2 32.2711 1263.49 28.8914 1281.4 25.9438C1310.56 21.1445 1320.71 28.2877 1331.05 31.839C1338.62 34.4378 1348.67 34.2184 1357.23 35.6922C1365.07 37.0439 1378.47 37.7697 1397.3 39.2435C1450.17 43.3815 1457.62 35.4258 1467.05 31.2708C1478.47 26.2383 1494.1 28.8914 1511.14 27.4176C1516.01 26.9961 1521.44 27.1157 1523.33 27.1157C1523.42 27.1157 1519.75 28.8736 1518.21 32.1231C1516.61 35.5124 1545.07 35.994 1579.13 35.701C1591.51 35.5946 1593.92 34.8221 1609.92 34.5202C1655.43 33.6616 1689.47 33.0464 1697.05 31.2708C1712.21 27.7219 1745.22 28.8914 1769.47 27.1246C1781.47 26.2504 1792.28 24.1682 1801.74 23.2714C1828 20.7811 1864.72 22.9607 1873.54 25.0382C1888.08 28.4642 1895.76 28.2877 1902.47 34.1917C1909.47 40.3543 1906.13 53.7151 1907.05 71.1432C1907.35 76.859 1908.57 83.8835 1908.87 92.7529C1909.06 98.1752 1910.4 123.942 1910.1 161.808C1909.9 186.915 1907.37 201.095 1906.14 216.454C1904.99 230.957 1901.89 242.503 1900.97 255.243C1900.34 263.952 1898.24 272.121 1897.32 283.654C1895.88 301.639 1897 330.114 1899.13 338.122C1899.68 340.154 1899.44 342.543 1900.95 343.751C1904.57 346.65 1910.38 344.372 1914.32 344.656C1916.63 344.823 1918.87 347.87 1920.11 350.25C1924.33 358.342 1923.18 377.95 1921.36 391.392C1920.17 400.231 1917.7 409.415 1916.18 418.027C1914.69 426.543 1912.84 436.049 1911.92 455.564C1911.22 470.467 1909.19 479.873 1908.27 499.068C1907.71 510.744 1905.54 520.109 1904.62 531.358C1903.74 542.107 1901.89 549.123 1900.97 565.078C1899.71 586.907 1900.65 620.15 1903.09 629.028C1905.65 638.35 1906.13 646.784 1907.05 661.265C1907.75 672.308 1909.78 685.245 1910.1 746.017C1910.19 764.64 1907.37 772.856 1906.45 781.441C1904.27 801.69 1906.13 835.004 1907.05 852.725C1907.7 865.262 1907.97 874.086 1906.15 877.043C1902.24 883.41 1890.97 882.982 1883.04 884.749C1875.69 886.386 1868.45 887.706 1849.09 889.783C1809.54 894.027 1780.8 889.499 1770.23 888.611C1727.42 885.015 1717.55 890.085 1707.19 891.559C1694.5 893.366 1681.07 893.636 1667.34 896.584C1654.49 899.344 1638.5 898.963 1607.88 900.437C1587.68 901.409 1549.7 900.739 1528.65 901.032C1504.56 901.367 1478.58 902.515 1442.99 902.222C1421.75 902.047 1407.2 899.567 1391.69 898.67C1382.72 898.151 1374.34 896.016 1349.14 895.119C1343.28 894.911 1340.28 894.24 1305.89 893.938C1271.51 893.636 1205.84 893.636 1170.51 893.343C1132.15 893.025 1115.2 891.861 1090.59 891.275C1057.8 890.494 1040.25 887.723 1010.68 886.835C984.138 886.038 934.126 886.534 906.861 886.241C879.596 885.948 876.584 885.362 854.248 885.06C831.912 884.758 790.344 884.758 767.425 885.051C726.918 885.569 697.679 887.706 680.948 888.602C663.574 889.533 642.912 891.257 624.666 892.154C608.177 892.964 585.152 895.98 563.208 897.481C550.931 898.32 540.06 900.135 521.522 901.032C511.928 901.496 504.754 903.686 444.41 903.997C424.372 904.1 413.476 901.343 401.619 900.446C391.485 899.679 380.616 897.791 373.305 896.895C364.132 895.77 353.233 894.24 330.769 893.343C318.463 892.852 307.594 890.689 298.165 888.318C284.799 884.958 271.083 885.362 231.952 884.465C221.755 884.231 193.423 882.982 152.357 882.689C135.967 882.572 117.261 881.207 90.7994 881.793C79.2594 882.048 70.91 884.758 60.5682 883.879C47.2674 882.749 54.4252 852.832 53.5033 811.823C53.0676 792.443 50.774 774.703 50.4546 744.011C50.3293 731.978 53.1838 724.984 54.1057 717.873C55.1308 709.965 58.6605 700.729 58.9799 642.905C59.0924 622.546 56.2507 608.395 55.3288 590.363C54.7629 579.295 51.3947 567.555 49.8521 558.366C48.121 548.053 47.1229 534.989 46.8035 498.402C46.6828 484.588 49.5327 474.049 51.6686 461.912C55.0156 442.893 53.8045 434.38 55.3197 426.372C57.0359 417.302 58.6605 408.917 60.7964 400.039C63.0272 390.766 62.9323 377.595 64.4475 363.372C67.0235 339.191 61.7274 330.789 60.5043 323.384C58.8989 313.666 54.4252 304.757 50.774 295.275C47.5376 286.87 47.1229 279.295 45.8998 271.89C44.205 261.63 39.8207 250.316 36.1696 240.23C33.1049 231.764 32.5185 223.077 32.199 176.75C32.0807 159.597 36.7538 151.447 38.8897 144.336C40.9834 137.364 44.056 130.139 46.4931 123.028C49.5327 115.916 53.1838 108.831 55.3197 101.134C55.63 98.7635 55.63 95.8337 55.63 92.815" stroke="#A4F0EF" stroke-width="2" stroke-linecap="round"/>
</svg>
