<svg width="409" height="555" viewBox="0 0 409 555" fill="none" xmlns="http://www.w3.org/2000/svg">
<path d="M23.4562 13.7395C27.3338 13.2256 34.5751 10.6406 40.9559 8.42538C44.4567 7.21005 49.6338 6.73185 56.7816 8.15285C62.4485 9.27945 72.1674 12.6806 80.1483 14.3858C84.111 15.2324 88.3162 15.2968 94.0197 15.9431C109.247 17.6684 118.153 13.4904 123.105 11.5399C128.636 9.36175 135.564 7.26132 138.81 5.95712C142.509 4.47165 145.686 3.10343 150.482 2.06396C156.039 0.859561 161.243 0.502804 168.114 1.91991C183.422 5.07683 187.202 8.53828 190.979 10.6172C195.451 13.0793 200.19 15.0321 203.565 16.7178C207.655 18.7603 213.146 18.4113 224.662 19.7038C240.906 21.527 253.137 19.7116 256.244 19.1938C262.48 18.1544 267.666 17.1188 272.727 16.0793C281.509 14.2757 292.068 14.7829 300.225 14.7751C307.551 14.7681 311.534 17.368 315.945 18.4074C319.39 19.2192 333.227 19.9686 349.399 17.1266C357.299 15.7383 362.924 14.7829 370.048 14.6466C375.639 14.5397 381.595 19.953 387.447 25.0102C391.094 28.1626 391.998 32.925 393.174 37.7214C395.619 47.6969 392.527 51.6122 391.235 57.0626C390.082 61.9253 389.413 67.1848 388.767 74.1652C386.801 95.4006 390.705 99.1087 391.873 102.492C393.105 106.06 394.599 111.551 395.51 115.857C396.347 119.814 396.421 138.414 395.646 149.984C395.359 154.261 393.571 158.285 392.013 162.443C390.633 166.128 389.942 169.964 389.284 177.871C388.818 183.476 389.148 189.695 390.188 194.234C391.173 198.537 392.263 203.18 394.595 209.799C396.505 215.22 396.421 220.046 397.067 226.399C398.685 242.307 395.128 247.049 393.314 250.432C391.607 253.615 389.942 256.657 387.606 262.228C384.862 268.773 383.449 272.23 382.409 276.769C381.368 281.316 380.848 286.494 380.202 293.358C378.654 309.796 381.362 314.525 381.883 325.021C382.22 331.788 383.698 335.299 384.866 340.356C385.902 344.845 387.591 349.828 389.923 354.504C391.797 358.26 393.041 363.065 394.081 367.351C396.674 378.044 394.349 394.475 392.664 397.593C390.965 400.736 389.942 405.111 387.992 409.14C386.486 412.25 385.784 416.012 384.873 419.909C383.51 425.74 383.962 437.221 384.609 444.696C385.071 450.041 386.812 453.651 387.852 456.897C389.044 460.621 389.927 463.773 390.838 467.02C391.93 470.914 392.263 475.701 393.302 480.124C394.27 484.243 394.599 488.424 394.606 502.794C394.609 508.548 389.942 511.269 388.638 514.388C387.01 518.28 387.342 523.727 386.82 533.308C386.705 535.427 386.049 536.185 385.271 536.839C382.11 539.495 374.416 539.316 369.052 538.669C365.004 538.182 360.884 536.466 350.263 536.073C342.959 535.802 335.703 535.936 331.292 537.622C327.553 539.051 322.731 539.051 315.618 540.608C297.193 544.642 286.462 541.651 278.863 540.359C274.732 539.656 269.021 539.316 259.191 538.669C240.718 537.455 227.208 538.794 224.88 539.569C218.477 541.699 212.944 543.723 207.883 544.891C202.192 546.204 197.636 547.616 178.996 547.624C170.794 547.627 163.127 545.295 157.657 543.991C154.035 543.128 149.875 542.695 144.553 542.302C140.37 541.993 135.346 539.58 131.051 539.187C122.927 538.443 108.872 539.051 103.157 540.608C98.614 541.846 94.3272 542.165 89.9163 542.559C85.6812 542.936 78.521 543.987 72.6618 544.634C65.5427 545.419 52.1254 545.545 43.7123 544.641C40.0664 544.25 36.1946 542.181 32.683 540.62C28.3635 538.699 25.8077 535.687 20.8789 532.452C18.956 531.19 18.0136 529.458 16.7172 528.294C9.6724 521.969 16.1838 502.735 16.7055 498.971C17.836 490.813 16.4641 476.278 14.7667 472.236C12.854 467.683 9.70559 463.804 8.01985 460.039C6.4085 456.441 5.81243 452.124 4.77296 448.621C2.80709 441.994 4.50433 434.995 5.5438 431.23C6.53912 427.625 10.967 419.983 13.4586 414.746C15.0805 411.338 17.2116 405.687 18.7805 400.478C20.4558 394.916 20.3417 390.099 20.988 385.17C22.0358 377.179 19.8278 372.455 19.4346 367.904C18.9872 362.726 16.7133 358.175 15.6738 353.499C14.8523 349.804 13.0848 346.231 11.1344 342.466C9.54475 339.398 7.89916 335.594 3.74517 327.041C1.58414 322.592 1.14064 318.2 1.00438 309.654C0.907771 303.595 2.43317 298.485 3.07944 294.195C4.07112 287.611 5.28296 283.426 5.67617 278.751C6.01148 274.763 7.61886 270.703 8.52985 266.682C9.59556 261.977 9.95475 257.731 10.8657 253.445C11.8153 248.977 11.7767 241.162 12.423 233.602C13.3096 223.23 13.334 214.44 12.5593 208.152C12.0041 203.647 10.4842 200.113 9.31627 195.309C7.36275 187.273 8.39749 174.683 9.30849 169.1C10.42 162.288 10.7334 157.553 11.1266 150.545C11.3941 145.778 12.5554 137.09 13.2016 127.47C14.7181 104.898 12.0415 101.227 10.3557 97.7149C8.50717 93.864 7.36969 90.061 6.20175 86.9425C4.87783 83.4077 3.47654 79.4249 2.95486 75.267C2.28929 69.9623 1.14064 64.3661 1.13286 54.0103C1.12863 48.3902 5.79686 45.679 7.8758 42.5606C10.0035 39.3691 11.2473 35.5568 11.9052 31.7921C12.694 27.2786 13.0693 21.5414 15.6582 18.423C20.0614 16.0754 25.0057 15.8185 26.4306 15.0437C27.0846 14.526 27.5985 13.7551 28.128 12.9609" stroke="#9CDEDD" stroke-width="2" stroke-linecap="round"/>
<path d="M33.4562 19.7395C37.3338 19.2256 44.5751 16.6406 50.9559 14.4254C54.4567 13.2101 59.6338 12.7319 66.7816 14.1529C72.4485 15.2794 82.1674 18.6806 90.1483 20.3858C94.111 21.2324 98.3162 21.2968 104.02 21.9431C119.247 23.6684 128.153 19.4904 133.105 17.5399C138.636 15.3618 145.564 13.2613 148.81 11.9571C152.509 10.4717 155.686 9.10343 160.482 8.06396C166.039 6.85956 171.243 6.5028 178.114 7.91991C193.422 11.0768 197.202 14.5383 200.979 16.6172C205.451 19.0793 210.19 21.0321 213.565 22.7178C217.655 24.7603 223.146 24.4113 234.662 25.7038C250.906 27.527 263.137 25.7116 266.244 25.1938C272.48 24.1544 277.666 23.1188 282.727 22.0793C291.509 20.2757 302.068 20.7829 310.225 20.7751C317.551 20.7681 321.534 23.368 325.945 24.4074C329.39 25.2192 343.227 25.9686 359.399 23.1266C367.299 21.7383 372.924 20.7829 380.048 20.6466C385.639 20.5397 391.595 25.953 397.447 31.0102C401.094 34.1626 401.998 38.925 403.174 43.7214C405.619 53.6969 402.527 57.6122 401.235 63.0626C400.082 67.9253 399.413 73.1848 398.767 80.1652C396.801 101.401 400.705 105.109 401.873 108.492C403.105 112.06 404.599 117.551 405.51 121.857C406.347 125.814 406.421 144.414 405.646 155.984C405.359 160.261 403.571 164.285 402.013 168.443C400.633 172.128 399.942 175.964 399.284 183.871C398.818 189.476 399.148 195.695 400.188 200.234C401.173 204.537 402.263 209.18 404.595 215.799C406.505 221.22 406.421 226.046 407.067 232.399C408.685 248.307 405.128 253.049 403.314 256.432C401.607 259.615 399.942 262.657 397.606 268.228C394.862 274.773 393.449 278.23 392.409 282.769C391.368 287.316 390.848 292.494 390.202 299.358C388.654 315.796 391.362 320.525 391.883 331.021C392.22 337.788 393.698 341.299 394.866 346.356C395.902 350.845 397.591 355.828 399.923 360.504C401.797 364.26 403.041 369.065 404.081 373.351C406.674 384.044 404.349 400.475 402.664 403.593C400.965 406.736 399.942 411.111 397.992 415.14C396.486 418.25 395.784 422.012 394.873 425.909C393.51 431.74 393.962 443.221 394.609 450.696C395.071 456.041 396.812 459.651 397.852 462.897C399.044 466.621 399.927 469.773 400.838 473.02C401.93 476.914 402.263 481.701 403.302 486.124C404.27 490.243 404.599 494.424 404.606 508.794C404.609 514.548 399.942 517.269 398.638 520.388C397.01 524.28 397.342 529.727 396.82 539.308C396.705 541.427 396.049 542.185 395.271 542.839C392.11 545.495 384.416 545.316 379.052 544.669C375.004 544.182 370.884 542.466 360.263 542.073C352.959 541.802 345.703 541.936 341.292 543.622C337.553 545.051 332.731 545.051 325.618 546.608C307.193 550.642 296.462 547.651 288.863 546.359C284.732 545.656 279.021 545.316 269.191 544.669C250.718 543.455 237.208 544.794 234.88 545.569C228.477 547.699 222.944 549.723 217.883 550.891C212.192 552.204 207.636 553.616 188.996 553.624C180.794 553.627 173.127 551.295 167.657 549.991C164.035 549.128 159.875 548.695 154.553 548.302C150.37 547.993 145.346 545.58 141.051 545.187C132.927 544.443 118.872 545.051 113.157 546.608C108.614 547.846 104.327 548.165 99.9163 548.559C95.6812 548.936 88.521 549.987 82.6618 550.634C75.5427 551.419 62.1254 551.545 53.7123 550.641C50.0664 550.25 46.1946 548.181 42.683 546.62C38.3635 544.699 35.8077 541.687 30.8789 538.452C28.956 537.19 28.0136 535.458 26.7172 534.294C19.6724 527.969 26.1838 508.735 26.7055 504.971C27.836 496.813 26.4641 482.278 24.7667 478.236C22.854 473.683 19.7056 469.804 18.0199 466.039C16.4085 462.441 15.8124 458.124 14.773 454.621C12.8071 447.994 14.5043 440.995 15.5438 437.23C16.5391 433.625 20.967 425.983 23.4586 420.746C25.0805 417.338 27.2116 411.687 28.7805 406.478C30.4558 400.916 30.3417 396.099 30.988 391.17C32.0358 383.179 29.8278 378.455 29.4346 373.904C28.9872 368.726 26.7133 364.175 25.6738 359.499C24.8523 355.804 23.0848 352.231 21.1344 348.466C19.5447 345.398 17.8992 341.594 13.7452 333.041C11.5841 328.592 11.1406 324.2 11.0044 315.654C10.9078 309.595 12.4332 304.485 13.0794 300.195C14.0711 293.611 15.283 289.426 15.6762 284.751C16.0115 280.763 17.6189 276.703 18.5299 272.682C19.5956 267.977 19.9547 263.731 20.8657 259.445C21.8153 254.977 21.7767 247.162 22.423 239.602C23.3096 229.23 23.334 220.44 22.5593 214.152C22.0041 209.647 20.4842 206.113 19.3163 201.309C17.3628 193.273 18.3975 180.683 19.3085 175.1C20.42 168.288 20.7334 163.553 21.1266 156.545C21.3941 151.778 22.5554 143.09 23.2016 133.47C24.7181 110.898 22.0415 107.227 20.3557 103.715C18.5072 99.864 17.3697 96.061 16.2017 92.9425C14.8778 89.4077 13.4765 85.4249 12.9549 81.267C12.2893 75.9623 11.1406 70.3661 11.1329 60.0103C11.1286 54.3902 15.7969 51.679 17.8758 48.5606C20.0035 45.3691 21.2473 41.5568 21.9052 37.7921C22.694 33.2786 23.0693 27.5414 25.6582 24.423C30.0614 22.0754 35.0057 21.8185 36.4306 21.0437C37.0846 20.526 37.5985 19.7551 38.128 18.9609" stroke="#174242" stroke-width="2" stroke-linecap="round"/>
</svg>
