<svg width="158" height="79" viewBox="0 0 158 79" fill="none" xmlns="http://www.w3.org/2000/svg">
<path d="M43.9199 3.32362C43.9199 3.32362 2.00002 2.89079 2 37.9486C1.99998 73.0065 43.9199 76.2526 43.9199 76.2526" stroke="#007677" stroke-width="3"/>
<path d="M57.415 6.76883L80.3849 73.6685L101.345 6.76883" stroke="#007677" stroke-width="3"/>
<path d="M95.2793 67.5057C96.3029 65.657 99.2 61.5253 104.945 53.3116C109.654 46.5788 118.878 35.2713 124.337 28.5465C129.797 21.8217 131.434 20.184 132.483 18.9308C133.531 17.6777 133.941 16.8588 135.603 14.7744" stroke="#007677" stroke-width="3" stroke-linecap="round"/>
<path d="M121.335 16.0151C121.744 15.6056 129.735 11.9144 142.238 6.43657C150.772 2.6979 153.588 1.74658 154.518 2.05366C156.826 2.815 155.455 8.13638 154.121 14.3308C153.197 16.6044 151.559 19.6752 150.409 21.6666C149.258 23.658 148.644 24.4769 148.011 25.3206" stroke="#007677" stroke-width="3" stroke-linecap="round"/>
<rect x="2.5" y="2.5" width="153" height="73" stroke="#007677"/>
</svg>
