<svg width="158" height="79" viewBox="0 0 158 79" fill="none" xmlns="http://www.w3.org/2000/svg">
<path d="M43.9199 3.32362C43.9199 3.32362 2.00002 2.89079 2 37.9486C1.99998 73.0065 43.9199 76.2526 43.9199 76.2526" stroke="#6ECCCC" stroke-width="3"/>
<path d="M57.415 6.7688L80.3849 73.6684L101.345 6.7688" stroke="#6ECCCC" stroke-width="3"/>
<path d="M95.2793 67.5056C96.3029 65.6569 99.2 61.5253 104.945 53.3116C109.654 46.5787 118.878 35.2713 124.337 28.5465C129.797 21.8217 131.434 20.1839 132.483 18.9308C133.531 17.6776 133.941 16.8587 135.603 14.7743" stroke="#6ECCCC" stroke-width="3" stroke-linecap="round"/>
<path d="M121.335 16.0151C121.744 15.6056 129.735 11.9145 142.238 6.4366C150.772 2.69793 153.588 1.74661 154.518 2.05369C156.826 2.81503 155.455 8.13641 154.121 14.3308C153.197 16.6044 151.559 19.6753 150.409 21.6666C149.258 23.658 148.644 24.4769 148.011 25.3206" stroke="#6ECCCC" stroke-width="3" stroke-linecap="round"/>
</svg>
