<svg width="25" height="25" viewBox="0 0 25 25" fill="none" xmlns="http://www.w3.org/2000/svg">
<path d="M12.5325 2.12748e-05C8.20601 -0.00796686 3.99605 2.23382 1.67688 6.25079C-1.7749 12.2294 0.2731 19.8702 6.25174 23.322C12.2305 26.7738 19.8713 24.7258 23.3231 18.7472C26.7749 12.7685 24.7269 5.12766 18.7483 1.67582C16.7865 0.543214 14.6453 0.00390883 12.5324 2.12748e-05H12.5325ZM12.5258 2.42639C14.2289 2.42937 15.9543 2.86504 17.535 3.77772C21.9532 6.32859 23.7069 11.7202 21.822 16.3125L8.68652 3.17695C9.90157 2.68116 11.2066 2.4241 12.5258 2.42639ZM6.28843 4.56827L20.429 18.7089C19.9204 19.36 19.3436 19.9358 18.7132 20.4297L4.56944 6.28562C5.07833 5.63464 5.65769 5.06162 6.28848 4.56817L6.28843 4.56827ZM3.17801 8.68376L16.3152 21.8209C13.5307 22.959 10.2682 22.8438 7.46167 21.2234C3.04227 18.6719 1.29058 13.2773 3.17801 8.68376Z" fill="#C90202"/>
</svg>
