<svg width="51" height="86" viewBox="0 0 51 86" fill="none" xmlns="http://www.w3.org/2000/svg">
<path d="M0 71.5796C0 63.6732 5.67112 57.2637 12.6667 57.2637H25.3333V71.5796C25.3333 79.486 19.6622 85.8955 12.6667 85.8955C5.67112 85.8955 0 79.486 0 71.5796Z" fill="#24CB71"/>
<path d="M25.3334 0V28.6318H38C44.9956 28.6318 50.6667 22.2223 50.6667 14.3159C50.6667 6.40952 44.9956 0 38 0H25.3334Z" fill="#FF7237"/>
<path d="M37.8944 57.2636C44.8901 57.2636 50.5611 50.8542 50.5611 42.9477C50.5611 35.0413 44.8901 28.6318 37.8944 28.6318C30.8988 28.6318 25.2278 35.0413 25.2278 42.9477C25.2278 50.8542 30.8988 57.2636 37.8944 57.2636Z" fill="#00B6FF"/>
<path d="M0 14.3159C0 22.2223 5.67112 28.6318 12.6667 28.6318H25.3333V0H12.6667C5.67112 0 0 6.40952 0 14.3159Z" fill="#FF3737"/>
<path d="M0 42.9477C0 50.8541 5.67112 57.2636 12.6667 57.2636H25.3333V28.6318H12.6667C5.67112 28.6318 0 35.0414 0 42.9477Z" fill="#874FFF"/>
</svg>
