<svg width="75" height="87" viewBox="0 0 75 87" fill="none" xmlns="http://www.w3.org/2000/svg">
<path d="M72.8224 2.18694C62.739 2.19866 52.7126 1.99596 42.6209 1.69777C29.1139 1.2985 15.7806 2.01439 2.30487 0.526213C1.5834 0.44636 1.22266 1.04721 1.24165 1.64528C0.998736 1.78432 0.799939 1.99373 0.724553 2.28298C-0.572092 7.2015 0.201875 12.966 0.528549 17.9917C0.954063 24.5358 1.80565 31.0514 2.66617 37.5496C4.35762 50.3267 5.60233 63.0742 6.93136 75.8764C6.57509 76.0908 6.30984 76.4951 6.34335 76.891C6.35005 76.9703 6.35675 77.0485 6.36345 77.1284C6.43046 77.9208 7.31779 78.4825 7.98007 78.2134C12.2838 79.2933 16.5803 80.3605 20.8304 81.6465C25.5965 83.0889 30.2676 85.5481 35.1052 86.6058C35.2035 86.627 35.29 86.617 35.381 86.6186C35.5301 86.742 35.7033 86.8386 35.9076 86.8649C41.0987 87.5422 46.3551 85.523 51.1586 83.7908C55.2875 82.3021 59.3422 80.5481 63.2824 78.5964C64.4791 78.3334 65.6506 77.98 66.7976 77.4444C66.8384 77.4254 66.8696 77.4014 66.9054 77.3802C67.3633 77.5047 67.8994 77.3188 68.1467 76.6939C72.556 65.5497 71.8033 52.471 71.8105 40.7209C71.8144 34.3979 71.782 28.0784 72.0467 21.7599C72.2919 15.9055 73.3864 10.2655 74.1051 4.48035C74.1257 4.31282 74.1134 4.16596 74.0799 4.0325C74.3301 3.24402 73.8365 2.18526 72.8224 2.18694ZM67.5654 30.2143C67.5961 30.8559 67.6207 31.4987 67.6386 32.1414C67.5509 33.0226 67.4504 33.9021 67.3409 34.7816C67.351 33.2549 67.4253 31.7321 67.5654 30.2143ZM62.0103 36.1581C61.9801 36.353 61.9606 36.5484 61.9288 36.7427C61.8824 37.056 61.9299 37.3363 62.0332 37.5837C61.7512 38.686 61.4753 39.7917 61.2095 40.9012C61.4575 39.3595 61.7294 37.7758 62.0103 36.1581ZM18.4649 63.5684C17.8596 58.986 17.4402 54.378 17.0812 49.7616C18.0394 49.756 19.0116 49.6683 19.8503 49.6884C21.8389 49.7354 23.9184 49.9559 25.96 49.9816C26.0069 50.7757 26.0767 51.5681 26.1995 52.3554C26.3849 53.5421 26.3838 54.8627 27.1494 55.8321C27.294 56.0153 27.4928 56.1024 27.7017 56.1231C28.1289 56.6201 28.8409 57.0389 29.2519 57.2382C31.4464 58.302 33.6421 59.2223 35.7373 60.4793C35.7446 60.4837 35.7518 60.4854 35.7591 60.4904C35.9037 60.6496 36.1092 60.754 36.3795 60.7356C40.0193 60.4977 44.3274 59.6461 47.3502 57.4962C47.5333 57.3655 47.6478 57.2058 47.7327 57.0405C47.7377 57.0411 47.7427 57.0422 47.7478 57.0428C48.4352 57.0707 48.8992 56.4749 48.9456 55.845C49.0589 54.311 49.2935 52.7854 49.4241 51.2526C49.5442 49.8448 49.7994 47.8881 48.9796 46.6328C48.8216 46.3905 48.5491 46.1972 48.2537 46.1347C48.1733 46.0426 48.0677 45.9672 47.9209 45.9359C42.9186 44.8548 37.245 45.2172 32.1182 44.8604C27.0076 44.5053 21.7998 43.8843 16.6551 44.039C16.0168 34.9904 15.4388 25.9374 14.0411 17.0056C15.3065 17.253 16.8918 17.0676 17.9037 17.1C21.2458 17.2049 24.593 17.2278 27.9368 17.225C30.0191 17.2228 32.121 17.1636 34.2335 17.081C40.2516 17.5344 46.4712 17.0648 52.5753 16.5047C55.2646 16.5499 57.9389 16.7001 60.5819 17.0212C60.0782 19.2381 60.0888 21.6488 60.3228 24.031C60.2915 24.8446 60.2552 25.6571 60.2049 26.4701C48.6027 26.569 37.1261 27.5825 25.4943 26.7315C24.9509 26.6913 24.6315 27.1224 24.5852 27.5808C23.7805 28.2721 23.6649 29.6218 23.5007 30.6175C23.274 31.9929 23.1165 33.6692 23.9011 34.9005C24.2216 35.402 24.8471 35.6069 25.3714 35.4025C25.506 35.5494 25.7009 35.6393 25.9672 35.6097C37.0971 34.3829 48.1046 35.4377 59.2059 35.2696C58.7257 38.6721 58.184 42.0672 57.6664 45.4607C57.0337 49.608 56.4579 53.7543 56.0844 57.9334C55.9403 59.5428 55.5963 61.7703 55.7588 63.7705C52.3011 65.4972 48.7445 67.0138 45.1444 68.4283C42.7611 69.3647 39.7875 69.9248 37.0647 70.7423C34.8623 69.4714 31.8563 68.942 29.5757 68.0245C25.9488 66.5648 22.2806 64.6165 18.4649 63.5684Z" fill="#BC9221"/>
</svg>
