<svg width="75" height="107" viewBox="0 0 75 107" fill="none" xmlns="http://www.w3.org/2000/svg">
<path d="M20.3177 3.11872C19.9994 1.7534 17.7663 1.68416 17.496 3.11872C17.2922 4.20372 17.2213 5.30882 17.1543 6.41281C16.019 6.0638 14.509 6.3888 13.4268 6.44631C12.9042 6.47368 12.2765 6.46642 11.636 6.49154C11.4752 4.53374 11.1384 2.60331 10.68 0.938673C10.2857 -0.492542 8.04928 -0.217244 8.08166 1.29047C8.12522 3.34991 5.99263 14.6109 9.80159 14.387C10.4616 14.3479 11.2228 13.933 11.3451 13.2115C11.3568 13.1417 11.3551 13.0898 11.3624 13.0278C11.5991 11.8869 11.7064 10.6327 11.7292 9.34448C12.3374 9.3657 12.9293 9.35844 13.4268 9.38525C14.4102 9.43718 15.7482 9.71359 16.8371 9.50363C16.6176 10.573 16.2776 11.5809 16.0938 12.2198C15.9112 12.8558 16.1971 13.6521 16.803 13.962C21.3279 16.2772 20.7907 5.15135 20.3177 3.11872Z" fill="#126A6A"/>
<path d="M35.4939 2.65094C34.2089 1.15997 31.1979 1.67316 29.4345 1.73514C26.9154 1.82393 24.4305 1.96353 21.9394 2.30137C20.9488 2.43539 21.195 3.79234 21.9394 4.06596C23.7744 4.74108 25.6596 4.9315 27.5906 5.02811C27.3063 7.77439 27.1639 10.5201 27.1533 13.2876C27.145 15.423 30.4726 15.423 30.4642 13.2876C30.4536 10.5776 30.3173 7.88886 30.0454 5.2001C31.8044 5.40113 33.9727 5.69485 35.2063 4.88627C36.0109 4.35689 36.1103 3.36683 35.4939 2.65094Z" fill="#126A6A"/>
<path d="M53.0812 10.7299C52.9455 8.37452 52.7623 6.01689 52.7411 3.65592C52.7277 2.08677 50.9559 1.54958 49.858 2.46203C48.0688 3.95132 46.5282 5.65336 45.0539 7.43024C43.9058 5.73378 42.7036 4.07305 41.6253 2.32968C40.7469 0.910193 38.4886 1.47698 38.4775 3.18182C38.4635 5.5629 38.3401 7.94677 38.2669 10.3273C38.2206 11.8339 37.9933 13.5108 39.0342 14.7259C39.3586 15.1051 40.0226 15.0733 40.3521 14.7259C41.4516 13.5678 41.3946 11.8412 41.5074 10.3273C41.5555 9.68511 41.5912 9.04294 41.6342 8.40076C42.2529 9.30037 42.8661 10.2039 43.4407 11.1336C43.9634 11.9785 45.3873 12.3555 46.0932 11.4748C47.1944 10.1006 48.3123 8.75591 49.5051 7.47938C49.5671 8.5627 49.6386 9.64659 49.7028 10.7282C49.7809 12.0578 49.4872 14.9074 51.5249 14.9074C53.6418 14.9102 53.1566 12.0461 53.0812 10.7299Z" fill="#126A6A"/>
<path d="M65.2831 11.999C63.6313 12.2882 61.9762 12.372 60.3121 12.396C60.388 8.72444 60.5394 4.9155 59.1059 1.50079C58.7061 0.548698 57.1146 0.550932 57.1615 1.76381C57.3195 5.8782 57.0046 9.95686 56.9621 14.069C56.9521 14.9742 57.726 15.7337 58.6257 15.7325C61.1653 15.727 63.6604 15.6359 66.1649 15.192C68.2645 14.8195 67.3694 11.6332 65.2831 11.999Z" fill="#126A6A"/>
<path d="M72.8224 22.1869C62.739 22.1987 52.7126 21.996 42.6209 21.6978C29.1139 21.2985 15.7806 22.0144 2.30487 20.5262C1.5834 20.4464 1.22266 21.0472 1.24165 21.6453C0.998736 21.7843 0.799939 21.9937 0.724553 22.283C-0.572092 27.2015 0.201875 32.966 0.528549 37.9917C0.954063 44.5358 1.80565 51.0514 2.66617 57.5496C4.35762 70.3267 5.60233 83.0742 6.93136 95.8764C6.57509 96.0908 6.30984 96.4951 6.34335 96.8911C6.35005 96.9703 6.35675 97.0485 6.36345 97.1284C6.43046 97.9208 7.31779 98.4825 7.98007 98.2134C12.2838 99.2933 16.5803 100.36 20.8304 101.646C25.5965 103.089 30.2676 105.548 35.1052 106.606C35.2035 106.627 35.29 106.617 35.381 106.619C35.5301 106.742 35.7033 106.839 35.9076 106.865C41.0987 107.542 46.3551 105.523 51.1586 103.791C55.2875 102.302 59.3422 100.548 63.2824 98.5964C64.4791 98.3334 65.6506 97.98 66.7976 97.4444C66.8384 97.4255 66.8696 97.4014 66.9054 97.3802C67.3633 97.5047 67.8994 97.3188 68.1467 96.6939C72.556 85.5497 71.8033 72.471 71.8105 60.7209C71.8144 54.3979 71.782 48.0784 72.0467 41.7599C72.2919 35.9055 73.3864 30.2655 74.1051 24.4803C74.1257 24.3128 74.1134 24.166 74.0799 24.0325C74.3301 23.244 73.8365 22.1853 72.8224 22.1869ZM67.5654 50.2143C67.5961 50.8559 67.6207 51.4987 67.6386 52.1414C67.5509 53.0226 67.4504 53.9021 67.3409 54.7816C67.351 53.2549 67.4253 51.7321 67.5654 50.2143ZM62.0103 56.1581C61.9801 56.353 61.9606 56.5484 61.9288 56.7427C61.8824 57.056 61.9299 57.3363 62.0332 57.5837C61.7512 58.686 61.4753 59.7917 61.2095 60.9012C61.4575 59.3595 61.7294 57.7758 62.0103 56.1581ZM18.4649 83.5684C17.8596 78.986 17.4402 74.378 17.0812 69.7616C18.0394 69.756 19.0116 69.6683 19.8503 69.6884C21.8389 69.7354 23.9184 69.9559 25.96 69.9816C26.0069 70.7757 26.0767 71.5681 26.1995 72.3554C26.3849 73.5421 26.3838 74.8627 27.1494 75.8321C27.294 76.0153 27.4928 76.1024 27.7017 76.1231C28.1289 76.6201 28.8409 77.0389 29.2519 77.2382C31.4464 78.302 33.6421 79.2223 35.7373 80.4793C35.7446 80.4837 35.7518 80.4854 35.7591 80.4904C35.9037 80.6496 36.1092 80.754 36.3795 80.7356C40.0193 80.4977 44.3274 79.6461 47.3502 77.4962C47.5333 77.3655 47.6478 77.2058 47.7327 77.0405C47.7377 77.0411 47.7427 77.0422 47.7478 77.0428C48.4352 77.0707 48.8992 76.4749 48.9456 75.845C49.0589 74.311 49.2935 72.7854 49.4241 71.2526C49.5442 69.8448 49.7994 67.8881 48.9796 66.6328C48.8216 66.3905 48.5491 66.1972 48.2537 66.1347C48.1733 66.0426 48.0677 65.9672 47.9209 65.9359C42.9186 64.8548 37.245 65.2172 32.1182 64.8604C27.0076 64.5052 21.7998 63.8843 16.6551 64.039C16.0168 54.9904 15.4388 45.9374 14.0411 37.0056C15.3065 37.253 16.8918 37.0676 17.9037 37.1C21.2458 37.2049 24.593 37.2278 27.9368 37.225C30.0191 37.2228 32.121 37.1636 34.2335 37.081C40.2516 37.5344 46.4712 37.0648 52.5753 36.5047C55.2646 36.5499 57.9389 36.7001 60.5819 37.0212C60.0782 39.2381 60.0888 41.6488 60.3228 44.031C60.2915 44.8446 60.2552 45.6571 60.2049 46.4701C48.6027 46.569 37.1261 47.5825 25.4943 46.7315C24.9509 46.6913 24.6315 47.1224 24.5852 47.5808C23.7805 48.2721 23.6649 49.6218 23.5007 50.6175C23.274 51.9929 23.1165 53.6692 23.9011 54.9005C24.2216 55.402 24.8471 55.6069 25.3714 55.4025C25.506 55.5494 25.7009 55.6393 25.9672 55.6097C37.0971 54.3829 48.1046 55.4377 59.2059 55.2696C58.7257 58.6721 58.184 62.0672 57.6664 65.4607C57.0337 69.608 56.458 73.7543 56.0844 77.9334C55.9403 79.5428 55.5963 81.7703 55.7588 83.7705C52.3011 85.4972 48.7445 87.0138 45.1444 88.4283C42.7611 89.3647 39.7875 89.9248 37.0647 90.7423C34.8623 89.4714 31.8563 88.942 29.5757 88.0245C25.9488 86.5648 22.2806 84.6165 18.4649 83.5684Z" fill="#126A6A"/>
</svg>
