<svg width="75" height="75" viewBox="0 0 75 75" fill="none" xmlns="http://www.w3.org/2000/svg">
<path d="M0 75V0H75V75H0Z" fill="#FFD600"/>
<path d="M49.0375 56.1393C50.4791 58.4809 52.0458 60.7247 55.3646 60.7247C58.1521 60.7247 59.6146 59.3393 59.6146 57.4226C59.6146 55.1288 58.1021 54.3143 55.0354 52.9788L53.3541 52.2622C48.5021 50.2038 45.275 47.6247 45.275 42.1768C45.275 37.1559 49.1187 33.3351 55.125 33.3351C59.4021 33.3351 62.475 34.8163 64.6916 38.6955L59.4541 42.0434C58.3021 39.9851 57.0562 39.1747 55.125 39.1747C53.1541 39.1747 51.9062 40.4184 51.9062 42.0434C51.9062 44.0518 53.1562 44.8643 56.0416 46.108L57.7229 46.8247C63.4416 49.2601 66.6666 51.7476 66.6666 57.3393C66.6666 63.3643 61.9083 66.6663 55.5208 66.6663C49.2729 66.6663 45.725 63.5309 43.75 59.6497L49.0375 56.1393ZM24.9 56.3101C25.9541 58.1976 27.5562 59.6497 29.8604 59.6497C32.0646 59.6497 33.3333 58.7788 33.3333 55.3934V33.333H40.2771V56.4601C40.2771 63.4747 36.2083 66.6663 30.2666 66.6663C24.8979 66.6663 21.0229 63.0288 19.4437 59.6497L24.9 56.3101Z" fill="#000001"/>
</svg>
