<svg width="30" height="30" viewBox="0 0 30 30" fill="none" xmlns="http://www.w3.org/2000/svg">
<path fill-rule="evenodd" clip-rule="evenodd" d="M5.99863 0.85713C5.99863 0.38375 5.61495 0 5.14168 0C4.66839 0 4.28474 0.38375 4.28474 0.85713V2.14283H2.99932C2.52603 2.14283 2.14237 2.52657 2.14237 2.99996C2.14237 3.47333 2.52603 3.85709 2.99932 3.85709H4.28474V5.14278C4.28474 5.61615 4.66839 5.99991 5.14168 5.99991C5.61495 5.99991 5.99863 5.61615 5.99863 5.14278V3.85709H7.28405C7.75732 3.85709 8.14099 3.47333 8.14099 2.99996C8.14099 2.52657 7.75732 2.14283 7.28405 2.14283H5.99863V0.85713ZM12.4257 7.28561C12.4257 6.81221 12.042 6.42848 11.5688 6.42848C11.0955 6.42848 10.7118 6.81221 10.7118 7.28561V8.5713H9.42641C8.95312 8.5713 8.56946 8.95504 8.56946 9.42843C8.56946 9.9018 8.95312 10.2856 9.42641 10.2856H10.7118V11.5713C10.7118 12.0446 11.0955 12.4284 11.5688 12.4284C12.042 12.4284 12.4257 12.0446 12.4257 11.5713V10.2856H13.7111C14.1844 10.2856 14.5681 9.9018 14.5681 9.42843C14.5681 8.95504 14.1844 8.5713 13.7111 8.5713H12.4257V7.28561ZM3.85626 13.7141C3.85626 13.2407 3.47259 12.8569 2.99932 12.8569C2.52603 12.8569 2.14237 13.2407 2.14237 13.7141V14.9998H0.856946C0.383668 14.9998 0 15.3835 0 15.8569C0 16.3303 0.383668 16.714 0.856946 16.714H2.14237V17.9997C2.14237 18.4731 2.52603 18.8568 2.99932 18.8568C3.47259 18.8568 3.85626 18.4731 3.85626 17.9997V16.714H5.14168C5.61495 16.714 5.99863 16.3303 5.99863 15.8569C5.99863 15.3835 5.61495 14.9998 5.14168 14.9998H3.85626V13.7141ZM18.0903 1.88968L17.4521 1.80342C16.9949 1.75219 16.7253 2.28323 16.9876 2.66131C17.2892 3.09598 17.567 3.5484 17.8192 4.01667C18.8931 6.01035 19.5025 8.29132 19.5025 10.7146C19.5025 17.7255 14.402 23.545 7.71014 24.6633C7.19274 24.7497 6.66255 24.8079 6.12738 24.8367C5.66795 24.8611 5.41443 25.4 5.73561 25.7294C5.88193 25.8796 6.03156 26.0263 6.18435 26.1699L6.33894 26.3128L6.89596 26.795L7.29874 27.1136L7.55823 27.3067L7.95874 27.5872L8.33554 27.8332C8.59468 27.9962 8.8595 28.1514 9.12989 28.298L9.69416 28.5879L10.2524 28.8439L10.9012 29.1056L11.4225 29.2894C11.7094 29.3842 12.0005 29.4701 12.2942 29.5464C12.5171 29.6042 12.7421 29.6569 12.97 29.7043C13.2397 29.7602 13.5122 29.8086 13.7871 29.8491L14.4662 29.9321L15.038 29.9764C15.3102 29.9921 15.5844 30 15.8604 30C23.6695 30 30 23.6682 30 15.8574C30 15.3222 29.9702 14.7939 29.9124 14.2741L29.8335 13.68C29.7596 13.2016 29.6617 12.7312 29.5413 12.2708C29.3961 11.7151 29.218 11.1727 29.0096 10.6473L28.7675 10.0741L28.6021 9.71865L28.4434 9.39989C28.1032 8.7379 27.7122 8.10624 27.2749 7.509L26.9471 7.07891L26.521 6.56635L26.1705 6.17912L25.9143 5.91319L25.5702 5.57666L25.0944 5.14677L24.4069 4.58979L23.8838 4.21066L23.258 3.80241L22.569 3.40487L21.8678 3.05096L21.6246 2.93949L21.1128 2.72272L20.5194 2.50051L19.979 2.32416L19.2829 2.13193L18.7157 2.00329L18.0903 1.88968ZM22.0733 11.1432C22.0733 8.94822 21.6384 6.85342 20.8505 4.94149C24.9849 6.83555 27.8576 11.0112 27.8576 15.8574C27.8576 22.4847 22.4863 27.8572 15.8604 27.8572C14.0035 27.8572 12.2457 27.4359 10.6766 26.6829C13.8009 25.7013 16.5194 23.803 18.517 21.3031C18.8092 21.7034 19.2819 21.9633 19.8154 21.9633C20.7028 21.9633 21.4222 21.2438 21.4222 20.3562C21.4222 19.5909 20.8874 18.9506 20.1712 18.7887C20.3041 18.539 20.4308 18.2855 20.5509 18.0283C20.96 18.2818 21.4425 18.4282 21.9593 18.4282C23.4382 18.4282 24.6372 17.2289 24.6372 15.7496C24.6372 14.2707 23.4388 13.0718 21.9604 13.0711C22.0349 12.4389 22.0733 11.7955 22.0733 11.1432Z" fill="#A4F0EF"/>
</svg>
