<svg width="96" height="96" viewBox="0 0 96 96" fill="none" xmlns="http://www.w3.org/2000/svg">
<path d="M47.6875 95.375C74.0246 95.375 95.375 74.0246 95.375 47.6875C95.375 21.3504 74.0246 0 47.6875 0C21.3504 0 0 21.3504 0 47.6875C0 74.0246 21.3504 95.375 47.6875 95.375Z" fill="#8892BF"/>
<path d="M42.371 27.25H48.0935L46.4762 35.8481H51.6183C54.4384 35.9083 56.539 36.5385 57.9216 37.7389C59.3314 38.9389 59.7463 41.2204 59.1659 44.5813L56.3874 59.5716H50.5818L53.2356 45.2565C53.5119 43.7557 53.4291 42.6905 52.9869 42.0604C52.5448 41.4302 51.5911 41.1151 50.1257 41.1151L45.5225 41.0702L42.122 59.5716H36.3995L42.371 27.25Z" fill="white"/>
<path fill-rule="evenodd" clip-rule="evenodd" d="M16.1488 35.8486H27.2623C30.5241 35.8783 32.888 36.8991 34.3534 38.9095C35.8188 40.9202 36.3025 43.666 35.8048 47.1475C35.6117 48.7386 35.1828 50.2986 34.5193 51.8294C33.8833 53.3598 32.9991 54.74 31.8655 55.9707C30.4829 57.5311 29.0039 58.5213 27.4281 58.942C25.8524 59.3623 24.221 59.5721 22.5349 59.5721H17.5587L15.9829 68.1252H10.2188L16.1488 35.8486ZM18.5125 54.4852L20.9923 41.0255H21.8299C22.1343 41.0255 22.452 41.0101 22.7837 40.9805C24.9956 40.9505 26.8336 41.1757 28.2991 41.6556C29.7917 42.1356 30.2894 43.9514 29.7917 47.1025C29.1841 50.8542 27.9946 53.0447 26.2256 53.6749C24.4565 54.2754 22.2446 54.5602 19.5906 54.5302H19.0101C18.8442 54.5302 18.6783 54.5149 18.5125 54.4852Z" fill="white"/>
<path fill-rule="evenodd" clip-rule="evenodd" d="M76.4244 35.8486H65.3108L59.3809 68.1252H65.1449L66.721 59.5721H71.6972C73.3833 59.5721 75.0145 59.3623 76.5903 58.942C78.1663 58.5213 79.645 57.5311 81.0276 55.9707C82.1612 54.74 83.0454 53.3598 83.6814 51.8294C84.3449 50.2986 84.7738 48.7386 84.9669 47.1475C85.4646 43.666 84.9812 40.9202 83.5155 38.9095C82.0501 36.8991 79.6865 35.8783 76.4244 35.8486ZM70.1545 41.0255L67.6747 54.4852C67.8406 54.5149 68.0065 54.5302 68.1724 54.5302H68.7528C71.407 54.5602 73.6186 54.2754 75.3879 53.6749C77.1567 53.0447 78.3462 50.8542 78.9542 47.1025C79.4518 43.9514 78.9542 42.1356 77.4612 41.6556C75.9959 41.1757 74.1579 40.9505 71.9458 40.9805C71.6141 41.0101 71.2966 41.0255 70.9921 41.0255H70.1545Z" fill="white"/>
</svg>
