<svg width="719" height="476" viewBox="0 0 719 476" fill="none" xmlns="http://www.w3.org/2000/svg">
<path d="M216.796 181.247H217.956" stroke="white" stroke-width="2" stroke-linecap="round"/>
<path d="M255.082 209.588H253.922" stroke="white" stroke-width="2" stroke-linecap="round"/>
<path d="M3.32038 138.169L1 140.436" stroke="white" stroke-width="2" stroke-linecap="round"/>
<path d="M21.8849 2.13363L18.4043 1" stroke="white" stroke-width="2" stroke-linecap="round"/>
<path d="M214.475 19.138C214.857 19.138 215.24 19.138 216.012 18.7639C216.783 18.3898 217.932 17.6416 220.276 16.8707" stroke="white" stroke-width="2" stroke-linecap="round"/>
<path d="M349.058 28.207H350.218" stroke="white" stroke-width="2" stroke-linecap="round"/>
<path d="M496.403 22.5389V21.4053" stroke="white" stroke-width="2" stroke-linecap="round"/>
<path d="M714.52 125.699L718 124.566" stroke="white" stroke-width="2" stroke-linecap="round"/>
<path d="M545.132 304.812V308.213" stroke="white" stroke-width="2" stroke-linecap="round"/>
<path d="M596.18 282.14H598.5" stroke="white" stroke-width="2" stroke-linecap="round"/>
<path d="M525.407 261.735C525.025 261.361 524.642 260.987 523.487 260.794C522.333 260.601 520.419 260.601 518.446 260.601" stroke="white" stroke-width="2" stroke-linecap="round"/>
<path d="M488.282 281.006L487.122 282.14" stroke="white" stroke-width="2" stroke-linecap="round"/>
<path d="M266.685 328.619C267.067 328.619 267.45 328.619 267.839 328.058C268.228 327.497 268.61 326.374 269.005 325.218" stroke="white" stroke-width="2" stroke-linecap="round"/>
<path d="M349.058 231.127H350.218" stroke="white" stroke-width="2" stroke-linecap="round"/>
<path d="M444.194 181.247V182.381" stroke="white" stroke-width="2" stroke-linecap="round"/>
<path d="M367.623 168.777C367.24 168.403 366.857 168.029 365.895 167.462C364.932 166.895 363.4 166.147 361.822 163.109" stroke="white" stroke-width="2" stroke-linecap="round"/>
<path d="M441.873 151.773V150.639" stroke="white" stroke-width="2" stroke-linecap="round"/>
<path d="M542.81 172.178C543.192 172.178 543.575 172.178 543.964 172.739C544.353 173.301 544.735 174.423 545.13 175.579" stroke="white" stroke-width="2" stroke-linecap="round"/>
<path d="M653.028 24.8062V28.207" stroke="white" stroke-width="2" stroke-linecap="round"/>
<path d="M605.461 95.0913C605.461 94.3431 605.078 92.8353 604.307 90.3867C603.918 89.0604 603.535 87.564 603.338 86.2319C603.141 84.8999 603.141 83.7776 603.141 82.6213" stroke="white" stroke-width="2" stroke-linecap="round"/>
<path d="M650.708 107.561V108.695" stroke="white" stroke-width="2" stroke-linecap="round"/>
<path d="M77.5723 279.873L76.4121 282.14" stroke="white" stroke-width="2" stroke-linecap="round"/>
<path d="M185.47 379.632C185.47 380.006 185.47 380.381 185.47 381.696C185.47 383.011 185.47 385.255 184.31 387.568" stroke="white" stroke-width="2" stroke-linecap="round"/>
<path d="M139.063 474.857V473.724" stroke="white" stroke-width="2" stroke-linecap="round"/>
<path d="M122.822 249.265V251.532" stroke="white" stroke-width="2" stroke-linecap="round"/>
<path d="M155.306 250.398V249.265" stroke="white" stroke-width="2" stroke-linecap="round"/>
<path d="M142.543 200.519H141.383" stroke="white" stroke-width="2" stroke-linecap="round"/>
<path d="M83.3751 176.713L81.0547 173.312" stroke="white" stroke-width="2" stroke-linecap="round"/>
<path d="M50.8906 140.436V139.303" stroke="white" stroke-width="2" stroke-linecap="round"/>
<path d="M72.9326 103.027V101.893" stroke="white" stroke-width="2" stroke-linecap="round"/>
<path d="M309.612 177.846H308.452" stroke="white" stroke-width="2" stroke-linecap="round"/>
<path d="M231.88 292.343V291.209" stroke="white" stroke-width="2" stroke-linecap="round"/>
<path d="M264.364 287.808L265.524 286.675" stroke="white" stroke-width="2" stroke-linecap="round"/>
<path d="M340.938 307.08H342.099" stroke="white" stroke-width="2" stroke-linecap="round"/>
<path d="M328.175 265.136C327.792 265.136 327.409 265.136 327.02 264.574C326.632 264.013 326.249 262.891 325.854 261.735" stroke="white" stroke-width="2" stroke-linecap="round"/>
<path d="M433.752 270.804V271.937" stroke="white" stroke-width="2" stroke-linecap="round"/>
<path d="M488.282 344.49V345.623" stroke="white" stroke-width="2" stroke-linecap="round"/>
<path d="M538.17 396.637V395.503" stroke="white" stroke-width="2" stroke-linecap="round"/>
<path d="M643.746 302.545H647.227" stroke="white" stroke-width="2" stroke-linecap="round"/>
<path d="M646.067 250.398L644.907 249.265" stroke="white" stroke-width="2" stroke-linecap="round"/>
<path d="M624.024 168.777V167.644" stroke="white" stroke-width="2" stroke-linecap="round"/>
</svg>
