<svg width="50" height="50" viewBox="0 0 50 50" fill="none" xmlns="http://www.w3.org/2000/svg">
<path d="M28.7471 13.1609C28.9224 13.1609 29.4509 13.38 30.575 14.0187C32.2354 14.9622 33.6113 16.1222 35.8535 17.9474C37.5915 19.3622 40.6374 21.657 42.1951 22.9412C43.7528 24.2253 43.7528 24.4006 43.709 24.5566C43.6651 24.7126 43.5775 24.8441 42.7655 25.6787C41.9534 26.5133 40.4197 28.0471 38.6435 29.626C36.8674 31.2049 34.8954 32.7825 33.6824 33.7924C32.0749 35.1967 31.4932 35.7345 31.1619 35.9775C31.0059 36.0891 30.8744 36.1767 30.6062 36.3998" stroke="#062929" stroke-width="2" stroke-linecap="round"/>
<path d="M27.1544 12.0985C27.0668 12.5381 26.7136 13.5114 26.3378 14.9449C25.8338 16.8674 25.3843 18.3372 25.2522 18.9108C24.7541 21.0733 23.8797 23.8667 23.5922 25.1515C23.2684 26.5986 23.083 27.7629 22.6859 29.4846C21.8314 33.1897 21.755 34.0042 21.5778 34.6715C21.5333 34.8049 21.4894 34.9364 21.4669 35.1137C21.4443 35.291 21.4443 35.5101 21.1787 35.7358" stroke="#062929" stroke-width="2" stroke-linecap="round"/>
<path d="M23.5688 12.8953C23.3058 13.2472 22.4652 13.8236 20.6639 14.702C19.1621 15.4343 16.4961 16.8074 14.9876 17.5949C12.6709 18.8043 11.7103 19.3544 10.2728 20.2402C9.3591 20.8031 8.61084 21.3463 7.21916 22.2314C6.79792 22.4993 6.35866 22.8044 6.13291 23.0501C5.90716 23.2957 5.90716 23.471 5.9948 23.6052C6.42569 24.2645 9.24826 26.1136 11.039 27.2577C11.8483 27.7747 12.677 28.5624 13.0986 29.0723C13.4985 29.5559 14.3555 30.6366 15.4424 32.6079C15.6874 33.076 15.9065 33.4704 16.0413 33.7393C16.1761 34.0082 16.2199 34.1397 16.2651 34.2751" stroke="#062929" stroke-width="2" stroke-linecap="round"/>
<circle cx="25" cy="25" r="24" stroke="#303030" stroke-width="2"/>
</svg>
