<svg width="79" height="70" viewBox="0 0 79 70" fill="none" xmlns="http://www.w3.org/2000/svg">
<path d="M78.1364 34.9605C78.1364 29.7981 71.6618 24.9057 61.7351 21.8718C64.0259 11.7693 63.0077 3.73185 58.5216 1.15858C57.4876 0.554976 56.2786 0.269058 54.9582 0.269058V3.81127C55.69 3.81127 56.2786 3.95423 56.7717 4.22426C58.9352 5.46324 59.8738 10.1809 59.1421 16.2487C58.9671 17.7418 58.6807 19.3144 58.3307 20.9187C55.2127 20.1563 51.8084 19.5686 48.229 19.1873C46.0814 16.2487 43.8543 13.5801 41.6113 11.2451C46.7973 6.43219 51.6652 3.79539 54.9741 3.79539V0.253174C50.5994 0.253174 44.8724 3.36651 39.0819 8.76719C33.2913 3.39828 27.5643 0.316711 23.1896 0.316711V3.85892C26.4826 3.85892 31.3664 6.47984 36.5525 11.261C34.3253 13.596 32.0982 16.2487 29.9824 19.1873C26.3871 19.5686 22.9828 20.1563 19.8648 20.9346C19.4989 19.3462 19.2285 17.8054 19.0376 16.3281C18.2899 10.2603 19.2126 5.54266 21.3602 4.2878C21.8374 4.00188 22.4578 3.87481 23.1896 3.87481V0.332596C21.8533 0.332596 20.6443 0.618514 19.5944 1.22212C15.1242 3.79539 14.1219 11.817 16.4286 21.8877C6.53375 24.9375 0.0909424 29.814 0.0909424 34.9605C0.0909424 40.1229 6.56556 45.0153 16.4923 48.0492C14.2015 58.1516 15.2196 66.1891 19.7057 68.7624C20.7397 69.366 21.9488 69.6519 23.285 69.6519C27.6598 69.6519 33.3867 66.5386 39.1773 61.1379C44.9679 66.5068 50.6948 69.5884 55.0696 69.5884C56.4058 69.5884 57.6149 69.3025 58.6648 68.6989C63.135 66.1256 64.1372 58.104 61.8305 48.0333C71.6936 44.9994 78.1364 40.107 78.1364 34.9605ZM57.424 24.3656C56.8354 26.4147 56.1036 28.5273 55.2764 30.6399C54.6241 29.3692 53.9401 28.0985 53.1924 26.8277C52.4606 25.557 51.6811 24.318 50.9016 23.1108C53.1606 23.4443 55.34 23.8573 57.424 24.3656ZM50.138 41.2825C48.8972 43.4269 47.6245 45.4601 46.3042 47.3503C43.9338 47.5568 41.5317 47.668 39.1137 47.668C36.7115 47.668 34.3094 47.5568 31.955 47.3662C30.6346 45.4759 29.3461 43.4586 28.1052 41.3301C26.8962 39.2493 25.7985 37.1366 24.7963 35.0081C25.7826 32.8796 26.8962 30.7511 28.0893 28.6703C29.3302 26.5259 30.6028 24.4927 31.9232 22.6025C34.2935 22.396 36.6956 22.2848 39.1137 22.2848C41.5158 22.2848 43.9179 22.396 46.2723 22.5866C47.5927 24.4768 48.8813 26.4941 50.1221 28.6226C51.3311 30.7035 52.4288 32.8161 53.431 34.9446C52.4288 37.0731 51.3311 39.2016 50.138 41.2825ZM55.2764 39.2175C56.1354 41.346 56.8672 43.4745 57.4717 45.5395C55.3877 46.0478 53.1924 46.4767 50.9175 46.8102C51.697 45.5871 52.4765 44.3323 53.2083 43.0456C53.9401 41.7749 54.6241 40.4882 55.2764 39.2175ZM39.1455 56.1661C37.666 54.6412 36.1866 52.9416 34.723 51.0831C36.1548 51.1467 37.6183 51.1943 39.0978 51.1943C40.5931 51.1943 42.0726 51.1625 43.5202 51.0831C42.0885 52.9416 40.609 54.6412 39.1455 56.1661ZM27.3098 46.8102C25.0509 46.4767 22.8714 46.0637 20.7875 45.5554C21.3761 43.5063 22.1078 41.3937 22.9351 39.281C23.5873 40.5518 24.2714 41.8225 25.019 43.0933C25.7667 44.364 26.5303 45.603 27.3098 46.8102ZM39.0659 13.7549C40.5454 15.2798 42.0249 16.9794 43.4884 18.8379C42.0567 18.7743 40.5931 18.7267 39.1137 18.7267C37.6183 18.7267 36.1388 18.7584 34.6912 18.8379C36.1229 16.9794 37.6024 15.2798 39.0659 13.7549ZM27.2939 23.1108C26.5144 24.3339 25.7349 25.5887 25.0031 26.8754C24.2714 28.1461 23.5873 29.4169 22.9351 30.6876C22.076 28.5591 21.3443 26.4306 20.7397 24.3656C22.8237 23.8732 25.019 23.4443 27.2939 23.1108ZM12.897 42.998C7.26553 40.5994 3.62255 37.4543 3.62255 34.9605C3.62255 32.4666 7.26553 29.3057 12.897 26.923C14.2651 26.3353 15.7605 25.8111 17.3036 25.3187C18.2103 28.432 19.4035 31.6724 20.8829 34.9923C19.4194 38.2962 18.2422 41.5207 17.3513 44.6182C15.7764 44.1258 14.281 43.5857 12.897 42.998ZM21.4556 65.6967C19.2921 64.4577 18.3535 59.7401 19.0853 53.6723C19.2603 52.1791 19.5466 50.6066 19.8966 49.0023C23.0146 49.7647 26.419 50.3524 29.9983 50.7337C32.1459 53.6723 34.373 56.3408 36.6161 58.6758C31.43 63.4888 26.5621 66.1256 23.2532 66.1256C22.5374 66.1097 21.9329 65.9668 21.4556 65.6967ZM59.1898 53.5928C59.9375 59.6607 59.0148 64.3783 56.8672 65.6332C56.3899 65.9191 55.7695 66.0462 55.0377 66.0462C51.7448 66.0462 46.861 63.4253 41.6749 58.6441C43.902 56.3091 46.1292 53.6564 48.245 50.7178C51.8402 50.3366 55.2445 49.7488 58.3625 48.9705C58.7284 50.5748 59.0148 52.1156 59.1898 53.5928ZM65.3144 42.998C63.9463 43.5857 62.4509 44.1099 60.9079 44.6023C60.0011 41.489 58.808 38.2486 57.3285 34.9287C58.7921 31.6248 59.9693 28.4003 60.8601 25.3028C62.435 25.7952 63.9304 26.3353 65.3303 26.923C70.9618 29.3215 74.6048 32.4666 74.6048 34.9605C74.5889 37.4543 70.9459 40.6153 65.3144 42.998Z" fill="#61DAFB"/>
<path d="M39.0978 42.2197C43.1129 42.2197 46.3678 38.9697 46.3678 34.9606C46.3678 30.9514 43.1129 27.7014 39.0978 27.7014C35.0827 27.7014 31.8278 30.9514 31.8278 34.9606C31.8278 38.9697 35.0827 42.2197 39.0978 42.2197Z" fill="#61DAFB"/>
</svg>
