<svg width="292" height="292" viewBox="0 0 292 292" fill="none" xmlns="http://www.w3.org/2000/svg">
<path d="M152.252 0L161.053 89.0563L204.431 11.3692L177.135 96.396L247.588 43.5108L188.915 109.806L274.26 90.8674L194.354 126.968L292 130.46L192.514 144.915L270.51 183.218L183.712 160.542L270.51 238.197L169.471 171.149L215.679 292L152.252 174.901L71.5022 292L135.032 171.149L56.9156 223.962L120.791 160.542L0 188.181L111.989 144.915L19.7966 130.46L110.149 126.968L30.2432 90.8674L115.589 109.806L56.9156 43.5108L127.368 96.396L100.072 11.3692L143.45 89.0563L152.252 0Z" fill="#D9D9D9"/>
</svg>
