<svg width="1435" height="1121" viewBox="0 0 1435 1121" fill="none" xmlns="http://www.w3.org/2000/svg">
<path d="M686.5 0L720.291 341.891L886.818 43.6467L782.03 370.068L1052.5 167.04L827.251 421.551L1154.9 348.844L848.135 487.437L1434.5 500.84L841.07 556.334L1140.5 703.382L807.28 616.329L1140.5 914.447L752.605 657.049L930 1121L686.5 671.452L376.5 1121L620.395 657.049L320.501 859.801L565.72 616.329L102 722.433L531.93 556.334L0.5 500.84L524.865 487.437L218.105 348.844L545.749 421.551L320.501 167.04L590.97 370.068L486.182 43.6467L652.709 341.891L686.5 0Z" fill="#106968"/>
</svg>
