<svg width="24" height="24" viewBox="0 0 24 24" fill="none" xmlns="http://www.w3.org/2000/svg">
<path d="M11.6612 0.302447C11.638 0.306674 11.6148 0.313014 11.5937 0.319354C11.3429 0.376416 11.1659 0.60255 11.1722 0.860384V4.10656C11.1701 4.301 11.2713 4.48275 11.4399 4.58208C11.6085 4.67929 11.815 4.67929 11.9836 4.58208C12.1523 4.48275 12.2534 4.301 12.2513 4.10656V0.860384C12.2576 0.703993 12.1944 0.553941 12.0827 0.448271C11.9689 0.340488 11.815 0.287653 11.6612 0.302447ZM3.97251 3.481C3.77018 3.51692 3.60789 3.66486 3.55098 3.86141C3.49408 4.06007 3.55309 4.27141 3.70273 4.41089L5.99584 6.71027C6.12652 6.87089 6.33517 6.94486 6.53751 6.89836C6.73773 6.85187 6.89581 6.69336 6.94217 6.49259C6.98854 6.2897 6.91477 6.08048 6.75459 5.94945L4.46148 3.65007C4.34978 3.52961 4.18749 3.46832 4.02309 3.481C4.00623 3.481 3.98937 3.481 3.97251 3.481ZM19.2824 3.481C19.1602 3.4979 19.0463 3.55919 18.962 3.65007L16.6689 5.94945C16.5087 6.08048 16.435 6.2897 16.4813 6.49259C16.5277 6.69336 16.6858 6.85187 16.886 6.89836C17.0883 6.94486 17.297 6.87089 17.4277 6.71027L19.7208 4.41089C19.8894 4.25027 19.9379 3.99878 19.8388 3.78744C19.7376 3.57399 19.5142 3.45141 19.2824 3.481ZM11.6612 6.27068C11.6443 6.27491 11.6275 6.28125 11.6106 6.28759C11.5769 6.2897 11.5432 6.29604 11.5094 6.3045C11.5031 6.31084 11.4989 6.31506 11.4926 6.3214C8.63039 6.44398 6.31621 8.7814 6.31621 11.681C6.31621 14.6588 8.7421 17.0913 11.7118 17.0913C14.6814 17.0913 17.1073 14.6588 17.1073 11.681C17.1073 8.79196 14.8121 6.463 11.9647 6.3214C11.9457 6.3214 11.9331 6.3045 11.9141 6.3045C11.8593 6.28336 11.8024 6.2728 11.7455 6.27068C11.7349 6.27068 11.7223 6.27068 11.7118 6.27068C11.6949 6.27068 11.678 6.27068 11.6612 6.27068ZM11.678 7.35274C11.6886 7.35274 11.7012 7.35274 11.7118 7.35274C11.7286 7.35274 11.7455 7.35274 11.7623 7.35274C14.1229 7.38022 16.0282 9.30763 16.0282 11.681C16.0282 14.0733 14.0976 16.0092 11.7118 16.0092C9.32802 16.0092 7.39532 14.0733 7.39532 11.681C7.39532 9.30129 9.30905 7.37176 11.678 7.35274ZM0.768899 11.1399C0.471722 11.1822 0.263066 11.4591 0.305219 11.7571C0.347371 12.0551 0.623472 12.2643 0.920649 12.222H4.15798C4.35189 12.2241 4.53314 12.1227 4.6322 11.9536C4.72915 11.7845 4.72915 11.5774 4.6322 11.4084C4.53314 11.2393 4.35189 11.1378 4.15798 11.1399H0.920649C0.903788 11.1399 0.886927 11.1399 0.870066 11.1399C0.853205 11.1399 0.836344 11.1399 0.819482 11.1399C0.802621 11.1399 0.78576 11.1399 0.768899 11.1399ZM19.1138 11.1399C18.8166 11.1822 18.608 11.4591 18.6501 11.7571C18.6923 12.0551 18.9684 12.2643 19.2655 12.222H22.5029C22.6968 12.2241 22.878 12.1227 22.9771 11.9536C23.074 11.7845 23.074 11.5774 22.9771 11.4084C22.878 11.2393 22.6968 11.1378 22.5029 11.1399H19.2655C19.2487 11.1399 19.2318 11.1399 19.215 11.1399C19.1981 11.1399 19.1812 11.1399 19.1644 11.1399C19.1475 11.1399 19.1306 11.1399 19.1138 11.1399ZM6.31621 16.4826C6.19396 16.4995 6.08015 16.5608 5.99584 16.6517L3.70273 18.9511C3.54255 19.0821 3.46878 19.2913 3.51515 19.4942C3.56152 19.695 3.71959 19.8535 3.91982 19.9C4.12215 19.9465 4.33081 19.8725 4.46148 19.7119L6.75459 17.4125C6.91477 17.2582 6.96325 17.0194 6.87684 16.8144C6.79253 16.6094 6.58809 16.4784 6.36679 16.4826C6.34993 16.4826 6.33307 16.4826 6.31621 16.4826ZM16.9387 16.4826C16.7364 16.5185 16.5741 16.6665 16.5172 16.863C16.4603 17.0617 16.5193 17.273 16.6689 17.4125L18.962 19.7119C19.0927 19.8725 19.3014 19.9465 19.5037 19.9C19.7039 19.8535 19.862 19.695 19.9084 19.4942C19.9547 19.2913 19.881 19.0821 19.7208 18.9511L17.4277 16.6517C17.3265 16.5439 17.1874 16.4847 17.0399 16.4826C17.023 16.4826 17.0062 16.4826 16.9893 16.4826C16.9724 16.4826 16.9556 16.4826 16.9387 16.4826ZM11.6612 18.6975C11.638 18.7017 11.6148 18.708 11.5937 18.7144C11.3429 18.7714 11.1659 18.9976 11.1722 19.2554V22.5016C11.1701 22.696 11.2713 22.8778 11.4399 22.9771C11.6085 23.0743 11.815 23.0743 11.9836 22.9771C12.1523 22.8778 12.2534 22.696 12.2513 22.5016V19.2554C12.2576 19.099 12.1944 18.949 12.0827 18.8433C11.9689 18.7355 11.815 18.6827 11.6612 18.6975Z" fill="#FFDF2C"/>
</svg>
