<svg width="22" height="21" viewBox="0 0 22 21" fill="none" xmlns="http://www.w3.org/2000/svg">
<path d="M11.8316 14.17C11.9678 13.81 11.8802 13.4 11.6079 13.12L9.57501 11.06L9.60419 11.03C11.2966 9.09 12.5027 6.86 13.2128 4.5H15.0998C15.625 4.5 16.0627 4.05 16.0627 3.51V3.49C16.0627 2.95 15.625 2.5 15.0998 2.5H9.25403V1.5C9.25403 0.95 8.81633 0.5 8.28136 0.5C7.74639 0.5 7.30869 0.95 7.30869 1.5V2.5H1.46294C0.937702 2.5 0.5 2.95 0.5 3.49C0.5 4.04 0.937702 4.48 1.46294 4.48H11.3647C10.713 6.42 9.68201 8.25 8.28136 9.85C7.4935 8.96 6.83208 7.99 6.27766 6.97C6.12203 6.68 5.83996 6.5 5.51898 6.5C4.84784 6.5 4.41986 7.25 4.75057 7.85C5.36335 8.98 6.11231 10.06 6.98771 11.06L2.73714 15.37C2.34807 15.76 2.34807 16.4 2.73714 16.79C3.11648 17.18 3.72926 17.18 4.11833 16.79L8.28136 12.5L10.2462 14.52C10.7422 15.03 11.5884 14.84 11.8316 14.17ZM16.5491 8.5C15.9655 8.5 15.4402 8.87 15.236 9.44L11.6663 19.24C11.4328 19.85 11.8802 20.5 12.5125 20.5C12.8918 20.5 13.2323 20.26 13.3684 19.89L14.2341 17.5H18.8543L19.7297 19.89C19.8659 20.25 20.2063 20.5 20.5856 20.5C21.2179 20.5 21.6653 19.85 21.4416 19.24L17.8719 9.44C17.6579 8.87 17.1327 8.5 16.5491 8.5ZM14.9733 15.5L16.5491 11.17L18.1248 15.5H14.9733Z" fill="white"/>
</svg>
